<?xml version="1.0" standalone="no"?><svg viewBox="0 0 1706.667 1706.667" xmlns="http://www.w3.org/2000/svg" xmlns:xlink="http://www.w3.org/1999/xlink"><style>:root>svg{display:none}:root>svg:target{display:block}</style><svg version="1.0" viewBox="0 0 1280 919" id="img-1" xmlns="http://www.w3.org/2000/svg"><path d="M517 28.8c-2.2.8-3 2.3-3 6.4 0 8.2 4 19.3 11.9 32.7 2.3 4.1 4.7 8.6 5.3 10 .5 1.4 1.6 3.9 2.3 5.6.8 1.6 3.5 8.2 6 14.5 8 20 16.4 37.2 34.5 70.5 3.2 6 4.1 7.6 8.5 15 1.3 2.2 3.8 6.8 5.6 10.2 1.8 3.5 3.7 6.3 4.1 6.3 1.3 0 4.8 6.3 4.8 8.7 0 1.2.9 2.7 2.1 3.3 1.1.7 2.7 2.8 3.6 4.8.8 2 2.3 4.6 3.3 5.7 1 1.1 4.1 6.3 6.8 11.6 2.7 5.2 6.7 12.4 8.9 16 2.2 3.5 5.9 9.8 8.3 13.9 2.3 4.1 6.2 10.4 8.6 14l4.3 6.5-5.4.5c-11.5 1.1-16.3 9.2-13 22.1.4 1.7.1 4-1 6.2-.9 2-1.4 4-1.1 4.5.8 1.3-1.3 2.9-4.9 3.8-4.6 1.1-13.6 6.8-18 11.3-4.1 4.3-5.5 5-5.5 2.7 0-.7-.7-2-1.7-2.7-.9-.8-3.8-5.9-6.4-11.4-6.9-14.2-9-17.6-23.6-37.2-3.7-4.9-3.9-5.3-1.8-5.3 1.9 0 1.9-2.4 0-4-1.3-1.1-1.8-1-3 .6-1.5 2.2.1 3.2-12.5-8-13-11.6-48.3-36-70.5-48.7-4.9-2.9-9.9-5.9-11-6.8-2.1-1.7-3.9-2.7-12.5-7.4-3-1.7-6.7-3.8-8.2-4.9-1.4-1-2.9-1.8-3.2-1.8-.4 0-3.5-1.7-6.9-3.8-3.4-2.2-8.4-5.1-11.2-6.7-2.7-1.5-10.2-5.8-16.5-9.5-6.3-3.7-15.8-9.1-21-12-5.2-3-11.1-6.6-13-8-1.9-1.5-5.1-3.3-7-4-1.9-.7-10.2-4.5-18.5-8.5-8.2-4-17.2-8-20-9-2.7-.9-8.6-3.1-13-5-10.2-4.3-23.9-9.1-29-10.4-2.2-.5-6.9-2.1-10.4-3.5-3.6-1.4-7.2-2.6-8.1-2.6-.9 0-2.1-.5-2.7-1.1-1.4-1.4-17.4-4.9-22.5-4.9-5.8 0-22.2-3.5-24.4-5.2-.6-.4-1.9-.6-2.8-.2-.8.3-3.7-.4-6.3-1.7-3.7-1.8-6.2-2.3-11-2.1-3.5.1-7.5.7-9 1.3-1.5.6-7.7.9-13.8.9-24.6-.4-57.1 1.7-59.9 3.9-.6.4-3.8 1.3-7.1 2s-6.4 1.7-7 2.1c-.5.4-3.9 1.8-7.5 3-9.5 3.2-9.8 3.3-18.3 7.3-4.2 2.1-8.6 3.7-9.7 3.7-1 0-2.5.8-3.2 1.8-.7.9-3.8 3.9-6.9 6.5-3.1 2.6-6.3 6.2-6.9 8-.7 1.7-2.2 3.9-3.3 4.8-1.6 1.3-2.1 3.2-2.5 9.3-.4 7.2-.4 7.6 1.7 7.6 1.6 0 2.1.6 2.1 2.8 0 1.5-.4 3.2-.9 3.8-.5.5-1.4 2.7-2.1 4.9-.7 2.2-2.5 5.6-4 7.5-3.6 4.5-6.2 11-5.4 12.9.4.9.6 2.3.5 3.2-.1.8 1 2.8 2.5 4.4 2 2.1 2.4 3.4 1.9 5.4-.4 1.4-.8 3.8-.9 5.3-.2 1.5-.9 3.4-1.6 4.3-1.4 1.6-11.3 8.5-12.2 8.5-.3 0-2 1.3-3.8 3-1.8 1.6-3.8 3-4.6 3-.7 0-1.7.7-2.2 1.6-.5.9-2.6 2.6-4.8 3.8-2.1 1.2-3.9 2.6-4 3.1 0 .6-.4 2.1-.8 3.5-1 3.6 2.6 11.7 5.9 13.2 1.4.6 2.5 1.7 2.5 2.4s1.7 1.8 3.8 2.4c10 3.2 17.9 8.6 20.8 14.3 1.1 2.1 2 2.6 3.7 2.2 3.2-.8 4.4.5 5.9 6 .7 2.8 1.9 5.4 2.6 6 .7.5 1.4 1.9 1.6 3 .2 1.2 2.2 4 4.4 6.4 2.2 2.4 4.7 5 5.5 5.9.8 1 2.7 2.6 4.1 3.7 1.5 1.1 3.1 3 3.6 4.3.6 1.3 2.5 2.9 4.4 3.7 4.1 1.8 10.2 11.9 10.8 18 .3 3.5 0 4-1.9 4.3-3.4.5-2.8 2.2.7 2.2 2.4 0 3.5.8 5.4 3.8 1.3 2 3.1 4.3 4 5.1.9.7 1.6 2.1 1.6 3 0 .9 1.3 2.3 2.9 3.2 1.5.9 4.1 3.4 5.7 5.5 1.6 2.2 3.7 4.8 4.7 5.9 3.7 4 6.9 11.7 6.4 15.2-.5 2.8-.2 3.5 2.4 5 2.9 1.7 3.8 3.3 1.9 3.3-.5 0-1 .9-1 2s.7 2 1.5 2c.9 0 1.2.6.9 1.5-.4.8.1 1.7 1 2.1.9.3 1.6 1.6 1.6 2.9 0 1.2.7 2.8 1.4 3.5.8.6 2 2.7 2.6 4.6 1 3 .9 3.8-.6 5.5-1.8 2-1.8 2 .7 1.4 2.4-.6 2.5-.4 3.8 6.8.7 4.1 1.1 8.1.9 8.9-.3.7-.1 2.1.4 3 .5 1.2.5 2.6-.3 3.9-.9 1.8-.6 2.6 2.4 5.4 1.9 1.8 4 3.4 4.7 3.7.7.2 1.5 2.2 1.6 4.4.2 2.6 1.1 4.5 2.7 5.9 2 1.6 2.3 2.5 1.7 4.7-.7 2.2-.4 2.8 1.1 3.3 1 .4 1.9 1.2 1.9 1.8 0 .7 2 3.4 4.5 6.1 2.5 2.6 4.5 5.2 4.5 5.7 0 .4 1.7 1.3 3.8 1.8 2 .6 5 2.4 6.6 4.1 1.5 1.7 4.2 3.7 6 4.6 4.6 2.2 6.9 3.6 10.4 6.6l3.2 2.6-3.2 6.9c-2.4 5.4-3.1 8.3-3.2 13.8-.1 5.8-.6 7.7-2.7 11.1-2.8 4.3-2.9 9.1-.3 10.1 1.8.7 1.8 2.2-.1 4.3-1.2 1.3-1.3 2.2-.3 4.7 1 2.6.7 4.4-1.7 11.9-1.5 4.9-3.1 9.6-3.6 10.4-.5.8-2 3.6-3.4 6.2L162 584l1.6 7.2c1.2 5.3 2.4 7.9 4.4 9.8 3.7 3.5 8 12.2 7.3 14.9-.4 1.4.2 2.7 1.6 3.8 1.6 1.4 2.2 3 2.3 6.6 0 2.6.4 5 .9 5.3.5.2.7 5.3.6 11.2-.1 9.4.1 11.3 2.2 15.5 1.3 2.6 3.4 5.5 4.7 6.4 1.3.8 2.4 2.1 2.4 2.9 0 .7 1.6 1.6 3.5 2 2.5.4 4.4 1.7 6.3 4.3 1.5 2 3.9 4.9 5.4 6.6 3.7 4 6.4 12 5 14.9-.7 1.6-.6 2.9.4 4.7.7 1.3 1.3 3.8 1.4 5.5 0 3.3 2.6 6.2 7.3 8.2 1.5.6 2.7 1.6 2.7 2.2 0 .5 1.2 1 2.6 1 3.9 0 6.4 1.8 6.4 4.6 0 1.7.7 2.8 1.9 3.1 1.1.3 2.8 2.5 3.9 5.1 4.1 9.7 4.5 12.2 3.9 22.7-.8 12 .8 16.8 5.5 17.3 2.2.3 2.8.9 2.8 2.8 0 2.1.4 2.4 3.8 2.4 2.1 0 9.4-1.1 16.3-2.4 12.2-2.4 19.8-2.7 29.1-1.2 2.6.5 4.9 1.4 5.2 2.2.4 1 1.4 1.2 3 .8 2-.5 3.7.4 8.1 3.9 3 2.5 6.3 4.8 7.3 5.2 16.8 5.7 17.7 6.1 18 8 .2 1.1 2.7 3.7 5.5 5.7 5.7 4.1 9.7 7.9 12.8 12 1.2 1.7 3.7 3.2 6.2 3.9 2.3.6 5.6 1.8 7.2 2.7 1.7.8 6 1.7 9.7 1.9 6.6.4 12.3-.7 32.3-5.9 6.8-1.7 9.6-1.9 18.9-1.4 8.3.6 11.6 1.2 13.6 2.6 1.4 1 3.9 2.2 5.6 2.6 1.6.4 3.4 1.1 4 1.5 2 1.6 13.8 1.3 22.9-.5 12.1-2.4 11.5-2.2 12.8-5.6 1.1-3 3.4-3.9 5.3-2 .7.7 1.8.4 3.4-1 1.3-1.1 2.7-2 3.1-2 .4 0 1.1-1 1.5-2.3.3-1.2 1.5-3.4 2.6-4.9 1-1.5 2.5-4.6 3.4-7 .8-2.4 2.6-5.9 3.9-7.8 2.3-3.4 4.2-9.8 6.6-22.5.6-3.3 1.8-7.3 2.6-8.9.9-1.6 1.6-4.3 1.5-5.9 0-1.7.7-4.1 1.7-5.4 1.1-1.2 2.2-4 2.6-6 .9-5 4.5-13.3 6.7-15.5 1-1 1.8-2.6 1.8-3.6s.6-2.6 1.3-3.7c2.3-3.5 5.5-12.8 6.2-18 1.2-10.4 1.7-12.5 3-12.5.7 0 2.6-.7 4.1-1.5 2.7-1.4 3-1.3 3.8.5.6 1.3.5 2.9-.3 4.6-1.9 4.2-3.5 32.6-2.2 39.1 1.2 6 .7 10.7-3.1 27.8-4.6 20.9-5.4 30-3.3 38.6.3 1.3.7 7 .9 12.5.4 13.4 2.3 17.5 8.3 18.8 4.6 1.1 6.4 3.6 4.3 6.1-2.4 2.9 1.2 4.7 14 6.9 3.8.6 14.3 4.6 16 6.1.8.7 3.2 1.8 5.2 2.4 2.3.8 5.3 3 7.6 5.7l3.7 4.4 13.7.4c11.5.3 14.2.7 16.4 2.2 1.5 1.1 3.8 2.7 5.2 3.6 1.4.9 6.4 5.7 11.2 10.6 5.4 5.6 10.1 9.4 12.6 10.4 4 1.5 11.9 1.4 13-.3.3-.5 1.6-.9 2.8-.9 2.4 0 5.1-1.2 9.7-4.3 2.2-1.5 5.2-1.8 18.5-1.9 8.8-.1 16.6.2 17.4.7 2.4 1.6 8.3 3.5 10.7 3.5 1.2 0 4.8 1.3 8 2.9 3.2 1.6 8 3.6 10.7 4.5 2.7.9 6.5 2.8 8.4 4.3 2.3 1.7 3.7 2.3 4 1.5.6-1.8 4.2-1.4 4.9.5 1 2.5 8 8.5 13.5 11.5 4.5 2.4 5.3 2.6 8.5 1.5 2-.7 3.9-1.9 4.3-2.7.4-.8 1.5-2.9 2.4-4.7.9-1.7 1.6-3.7 1.6-4.5 0-.7 1.4-2.9 3.2-4.8 3.2-3.5 12.8-15.7 16-20.4 3.9-5.5 15.3-12 23.3-13.1 4.7-.8 8.8-3.4 13.3-8.7 1.3-1.5 3.5-3.3 5-4 1.5-.7 2.8-2.2 3-3.3.2-1.1 1.3-3 2.4-4.1 2.6-2.8 19.4-11.1 25.5-12.5 2.6-.7 5.7-1.5 6.8-1.9 1.1-.4 4.1-1.6 6.8-2.5 2.6-.9 5.5-2.8 6.5-4.2.9-1.4 2.4-3.2 3.2-4.2 2.9-3.2 5-7 5-9.1 0-1.1.8-2.4 1.8-2.7 3.6-1.3 6-5 6-9.4.1-3.7.6-4.7 3.9-7.5 4.9-4.2 13.1-8.4 14.9-7.7.8.3 1.4 1.1 1.4 1.9 0 .8.4 1.4 1 1.4.5 0 .7-1.3.4-3-.8-3.6.7-5.6 4.7-6.5 2.1-.5 3.1-1.4 3.5-3.3.4-1.5 1.2-3.2 1.9-3.7.6-.6 1.5-2.6 1.8-4.5.4-1.9 1.2-5.8 1.8-8.5.7-2.8 1.2-6.4 1.3-8 .1-1.7.6-3.9 1.2-5s1.4-3.5 1.7-5.3c.6-3 .5-3.2-1.8-2.6-2.2.5-2.5.3-2.5-1.9 0-3.2 1.2-4 3.5-2.3 1.7 1.2 2.2 1 5.1-2 1.7-1.9 4.2-5 5.5-6.9 1.3-1.9 2.7-3.5 3.1-3.5 1.2 0 6.9-12.8 7.7-17.3.4-2.4 1.2-4.1 1.9-3.9.7.1 1.7-.9 2.2-2.2 1-2.8 3.4-3.8 8.7-3.5 2.1.2 4.8-.3 6-.9 1.2-.7 4-1.2 6.2-1.2 2.3 0 4.1-.3 4.1-.8 0-.4 2.4-1.8 5.3-3.2 2.8-1.4 5.4-2.8 5.7-3.1 1.1-1.3 12-7.9 17.9-10.8 6.8-3.3 10-6.4 10.1-9.9 0-1.2 1-3.1 2.3-4.1 1.2-1 4.4-3.7 7-6 2.7-2.3 5.4-4.1 6-4.1.7 0 1.8-.9 2.5-2s1.9-2 2.7-2c.8 0 1.8-.6 2.2-1.3 1.4-2.2 8.1-6.7 10.1-6.7 1.8 0 6.6-1.3 10.7-3 1.1-.4 3.9-1.3 6.3-2 2.3-.7 4.2-1.6 4.2-1.9 0-.4 1.2-1.2 2.8-1.9 1.5-.6 4.7-2.5 7.2-4 2.5-1.6 6.5-3.2 8.9-3.6 3.2-.5 5.8-2 10-5.5 7.4-6.5 17.4-11.1 24.8-11.6 5.7-.3 15.3-1.6 26.4-3.4 5.4-.9 15.5-5.7 17.9-8.6.6-.8.9-1.9.5-2.5-.3-.5.2-1.3 1.2-1.6 1-.3 3.2-1.2 4.9-2.1 2.4-1.1 3.7-1.2 5.2-.4 1.1.6 3.4 1.1 5.1 1.1 1.6 0 3.3.5 3.6 1.1.4.6 1.7 1.4 2.9 1.8 1.5.6 2.3.4 2.7-.8.5-1.4 2.5-1.6 12.9-1.6h12.2l3.8-4.3c2.1-2.3 4.7-6 5.8-8.2 1.8-3.8 1.9-4.1.2-11.7-1-4.3-3.2-11.9-5-16.8-3.9-10.8-4.6-14.6-3.1-17.3.7-1.4.8-2.3.1-2.7-1.8-1.1-1.1-2.3 1.8-3 3.4-.8 11.4-6 10.5-6.8-.3-.4-.7-3.7-.8-7.4-.2-3.8-.6-10.8-1-15.6-.5-6.1-.4-9.2.4-10 .6-.6 1.1-2.4 1.1-4 0-1.5.4-3.6.9-4.5.6-1.1.4-4.7-.6-9.7-.8-4.4-1.6-10.9-1.8-14.4-.2-6.3-.3-6.5-3.9-8.3-4.3-2.2-4.7-4-.7-3.2 4.6 1 4.3-.9-1.1-6.7-5.5-5.9-7.2-9.2-6.4-12.5.6-2.2-1.6-8.9-3.1-9.6-.5-.1-2.1-2-3.7-4.1-3.7-5-8.2-7.7-12.7-7.7-2.2 0-5.1-1-7.3-2.5-2-1.4-3.9-2.5-4.1-2.5-.3 0-2.8-1.8-5.7-4-2.9-2.2-5.7-4-6.2-4s-3.1-1.6-5.8-3.6c-2.7-1.9-10.2-6-16.6-9-6.4-3.1-13-6.6-14.6-7.9-4.7-3.5-33-17.5-35.5-17.5-1.2 0-6.2-1.4-11.1-3-4.9-1.7-9.7-3-10.6-3-1 0-3.1-.4-4.8-1-1.7-.5-9.8-2.6-18.1-4.6-8.2-2-16-4.3-17.3-5.1-1.6-1-2.8-1.1-4.1-.4-1.2.7-3 .7-5.2.1-1.9-.6-5-1-7-1-5.5 0-9.9-1.1-9.9-2.5 0-2.7-11.4-3.6-12.4-.9-.4 1.1-1.8 1.4-5.8 1.2-4.8-.3-5.3-.5-5.1-2.5.3-2.9-3.1-3.9-7.2-2.2-1.7.7-4.1 1.4-5.5 1.6-4.5.6-24.2.3-46.5-.7-12.1-.5-28.3-1.3-36-1.6-10.4-.4-14.3-1-15.1-2-.9-1.1-2.5-1.3-6.5-.8-3 .3-7.7.2-10.6-.4-4-.7-5.5-.6-6.5.4-1.8 1.9-20.2 2.4-21.9.6-1.5-1.4-4.3-1.6-6.7-.3-.9.6-8.7 1.5-17.2 2-48.1 3.3-70.5 5.7-97 10.5-26.7 4.8-47.1 12.4-56.9 21.2-2.5 2.3-6.1 4.9-7.9 5.8-1.8.9-3.6 2.4-3.9 3.2-1.5 4-5.8-.4-6.9-7.2-.4-3.1-.2-4.8 1.1-6.8 1.4-2.1 1.6-3.8 1.1-8.9-.6-5.3-.4-6.6 1-7.8 2.4-2 4.4-7.2 4.4-11.5 0-3.9-1.9-10.4-3-10.4-.4 0-2-1.2-3.6-2.6-2-1.8-2.5-2.8-1.6-3.1.7-.3 2.6-1.6 4.1-2.9 1.6-1.3 3.4-2.4 4-2.4.6 0 1.1-.4 1.1-.9s1.7-1.5 3.8-2.2c2-.6 3.9-1.5 4.2-1.8.3-.4 1.6-1.2 3-1.9s3.9-2.1 5.5-3.2c3.3-2.2 4.8-2.9 14.5-7.2 8.8-4 12.4-5.9 26.8-14.5 6.7-4 12.7-7.3 13.2-7.3.6 0 1-.5 1-1 0-.6.5-1 1-1 .6 0 4.1-1.9 7.8-4.1 3.7-2.3 8.3-5 10.2-6.1 1.9-1.1 7.2-4.5 11.8-7.7 4.6-3.1 10.9-7.2 14-9.1 5.4-3.4 19.6-13.6 23.1-16.7.9-.8 5-3.9 9.2-7.1 13.1-9.8 30-24 40.6-34.3 9.9-9.4 16.4-14.4 26.5-20.2 6.6-3.8 17.6-18.6 17-22.7-.8-5.1-1.3-6-3.5-6-3.8 0-20.4 14.7-27.9 24.6-3.7 4.9-10.9 13-16 17.9-5.1 5-11.3 11.2-13.7 13.9-4.6 5.1-35.7 30.5-43 35-2.4 1.5-6.7 4.7-9.6 6.9-7.7 6-13.3 10-18.6 13-2.5 1.4-5.2 3.3-5.9 4.2-.8.9-3 2.5-4.9 3.6-2 1.1-5.8 3.3-8.6 4.9-2.7 1.6-6.1 3.5-7.5 4-1.4.6-2.9 1.6-3.5 2.3-.5.7-3.2 2.3-6 3.7-8.5 4.3-21 11.3-21.5 12-.3.3-2 1.2-3.7 1.9-1.8.8-3.3 2-3.3 2.8 0 1-.6 1.3-1.6.9-.9-.4-2.8.4-4.5 1.8-1.6 1.3-4.3 2.7-6.1 3.1-1.8.4-4 1.3-4.8 2-.8.7-2.6 1.6-4 2-1.4.4-2.7 1-3 1.4-.3.3-3.6 2.2-7.5 4.1-3.8 1.9-7.2 3.7-7.5 4-.6.7-7.5 4-8.4 4-.4 0-2 1-3.6 2.2-4.4 3.2-5.3 1.7-3.9-7.3.6-4.1 1.2-9.7 1.3-12.6.1-4.4-.1-5-1.5-4.2-1 .5-1.5 1.7-1.2 3.2.3 1.5-.4 3.4-2.1 5.4-1.4 1.7-2.6 4.2-2.6 5.5 0 2.9-3.8 5.7-4.5 3.3-.3-.8-.7-2.2-1-3-.2-.8.7-5.1 2-9.6 1.4-4.6 2.4-10.3 2.4-12.8-.1-2.6-.4-3.5-.6-2.1-.6 3.6-3.2 9.1-5.9 12.3-1.3 1.6-2.4 3.7-2.4 4.7s-.4 2.1-.9 2.4c-1.3.9-5.1 8.9-5.1 10.9 0 2.7-3.5 4-5.1 1.9-3.1-3.8-4.1-6.4-3-7.5 1.7-1.7 1.3-3-.9-2.4-1.6.4-3.2-1.3-8.5-9.2-3.5-5.4-7.6-12.2-9-15.2-3.1-6.5-2.6-5.5-14.7-26.1-5.4-9.1-9.8-17.7-9.8-19 0-1.3-.9-2.9-1.9-3.5-1.1-.7-3.1-3.6-4.6-6.5-1.5-2.9-3.5-6.2-4.6-7.4-1-1.1-1.9-2.3-1.9-2.7 0-.9-12.6-27.4-15.1-31.7-1.1-1.9-2.9-5.5-4-8s-3.5-7.5-5.4-11.2c-1.9-3.7-4.6-9.6-5.9-13-1.3-3.5-4.4-10.6-6.8-15.8-14.4-30.4-17.9-40-20.9-57-1-5.7-5-15.2-7.8-18.3-2.1-2.5-4.3-3.5-6.1-2.9z"/><path d="M591.5 219c-.3.5-.1 1 .4 1 .6 0 1.1-.5 1.1-1 0-.6-.2-1-.4-1-.3 0-.8.4-1.1 1zM968.5 776c-.3.5-.1 1 .4 1 .6 0 1.1-.5 1.1-1 0-.6-.2-1-.4-1-.3 0-.8.4-1.1 1zM299 780c1.9 1.3 3 1.3 3 0 0-.6-1-1-2.2-1-1.9 0-2 .2-.8 1zM482.6 820.6c-.4.9-.4 1.9-.1 2.2.6.6 3.5-1.8 3.5-2.9 0-1.6-2.8-1-3.4.7zM555 825.4c0 .2.7.9 1.5 1.6 1.2 1 1.5 1 1.5-.4 0-.9-.7-1.6-1.5-1.6s-1.5.2-1.5.4z"/></svg><svg version="1.0" viewBox="0 0 1178 1280" id="img-2" xmlns="http://www.w3.org/2000/svg"><path d="M803.5.7c-9.5 1.2-26.3 5-35 8-20.6 7.1-36.7 16.4-62 35.9-7.1 5.5-14.1 10.7-15.5 11.5-4.1 2.6-9.9 4.1-12.7 3.4-2.2-.5-2.5-1-1.9-3.8 1.1-5.7 9.8-16.9 25.5-32.9l15.4-15.7-15.5 5.3c-8.4 3-17.1 6.1-19.3 7-7.8 3.3-20.4 12.7-28.8 21.6-10.7 11.2-19 23.6-27.3 40.7-3.5 7.3-9.3 19.3-12.8 26.5-3.5 7.3-7.4 14.2-8.6 15.3-2.2 2-2.2 2-3.7 0-1.1-1.5-1.4-3.8-1-9.5.8-11.4 4.9-25.1 15.2-51.5 5.2-13.1 9.3-24 9.2-24.1-.6-.6-28 32.9-33 40.4-15.9 23.6-26.1 52.2-37.3 104.2-5.1 23.9-5.7 25.9-7.3 21.8-3.1-8.3-4.3-18.2-4.8-43.1l-.6-25.7-6.9 15.2c-8.7 19.4-12.3 29.4-14.8 41.9-1.8 8.9-2 13.5-1.9 46.6 0 21.9-.4 40.5-1.1 45.8-2.6 20.7-8.3 47.3-11.5 53.5-3.4 6.5-8.3 4.2-12.8-5.8-4.2-9.4-7.5-22.1-11.7-45.9-2.2-12.4-4.1-22.7-4.3-22.9-.5-.5-6.7 40.6-7.3 48.6-1.3 16.6 3.6 45.1 12.1 70.5 5.3 16 7.3 21 22.4 55.8 4.4 10.3 8.1 19.4 8.1 20.3 0 2.6-6.5-3.2-14.9-13.3-4.3-5.1-13.3-17.4-20-27.3-6.7-9.9-12.4-18-12.5-18-.8 0 10.8 44.9 14.4 55.9 11.2 33.8 31.3 67.6 55.4 92.8l5.9 6.3h-6.9c-4.7 0-8.3-.7-11.2-2l-4.4-2-3.9 3.2c-2.1 1.7-3.9 3.3-3.9 3.5 0 1.6 11.7 15.1 23.5 27.2 13 13.3 29.8 28.2 43 38.2 3.1 2.3 5.4 4.4 5.2 4.6-.6.5-33.2 4.5-58.7 7.3-49.3 5.2-85.4 4.4-94.3-2.2-1-.8-3.9-8.7-7.3-19.8-10.8-35.9-19.1-52.6-34.3-69.2-10.8-11.7-28.8-23.7-43.1-28.7-2.4-.8-3.1-1.5-2.6-2.7.4-.9 1.8-7.1 3.2-13.8 3.4-16.1 4.4-42.3 2.1-53.8-6.4-31-25.9-40.7-56.5-28.3-13.1 5.3-24.2 13.3-38.2 27.4-17.2 17.3-30.4 37.7-38 58.7l-2.2 6.1-7.6.7c-33.5 3.1-69.7 18.3-98.2 41.3-9.9 8-28 26.8-35.8 37-14.6 19.2-29.3 45.4-38.3 67.8-3.7 9.4-12.3 34.7-13.3 39.1-.6 2.6 1.4 7.6 13.4 33 7.8 16.4 14.6 30.4 15.1 31 .5.6 4.8 1.4 9.6 1.8 28.5 2.2 106.9 11.9 120.2 14.9l5.3 1.2 1.8 7c2.9 11.2 12.8 34.8 24.8 59.2 3.4 6.8 5.9 12.3 5.6 12.3-.2 0-16.1-12.3-35.2-27.4-38.8-30.6-44.5-34.6-57.7-41C78.6 766.7 40 775.8 13.8 813c-16.5 23.5-18.1 43.1-4.7 60.7C15.3 882 29 891 41.3 895l3.7 1.2 16-11.1C69.7 879 77.1 874 77.4 874c.3 0 11.5 9.1 24.8 20.3 58.8 49.1 87.7 71.7 99.6 77.6 21.7 11 85.7 25.4 162.6 36.6l10.9 1.6 5.6 5.1c13 11.9 27.8 21.5 37.4 24.3 3.1.9 6.1 2.4 6.6 3.3 1.3 2.6 2.9 10.8 6.1 32.6 9.5 63.5 20.9 95.2 42.5 117.7l4.7 4.9h-69.9l-12-4.4c-23.3-8.6-56.9-18-75.3-21.2-11.4-1.9-29.1-1.6-33.2.6-3.6 2-24.1 21-30.4 28.2-13.6 15.6-15.5 29.8-5.8 44.5 12.6 18.9 49.9 33.7 76.5 30.3 11.6-1.4 15.3-2.6 25.4-7.9 12-6.4 16.9-7.5 34.8-7.3 18.8.1 28.5 1.1 82.7 8.2 74.6 9.8 82 10.4 117.5 10.4 23.8 0 30.1-.3 42-2.2 30.2-4.7 56.3-5.2 106.5-2.2 23.9 1.5 56.2.8 68.5-1.5 26.2-4.8 46-15.5 62.4-34 9.8-11 7.5-10.4 18.7-5.2 29 13.2 63.9 23.4 92.8 27.2 15.7 2 42.3 2.1 54.6.1 70.9-11.4 109.3-65.2 116-162.4 5.2-77.1-12.4-186-51.9-320-5-17-5.9-21.2-5.4-25.3.6-4.7.5-5-3.9-9.2-4-4-4.7-5.5-7.2-14.6-10.2-38-8.5-67.4 5.4-97.1 2.8-5.8 5-10.9 5-11.2 0-.4-3.3.7-7.2 2.3-20.4 8.6-32.7 15.9-39.9 23.6-2.2 2.4-4.2 4.3-4.4 4.1-.6-.7-3.5-10-5.4-17.4-3.9-15.7-4.6-22.5-4.6-43.4.1-27.7 2.2-38.6 12.4-64.5 2.2-5.5 3.8-10.1 3.6-10.3-.7-.7-21.3 10.2-27.1 14.4-7.3 5.2-16.2 14.7-19.5 20.9-1.3 2.5-2.7 4.5-3 4.5-1.3 0-8-17.5-10.7-27.5-2.4-9-2.6-11.7-2.7-28 0-15.8.3-19.1 2.4-27 2.9-11.1 8.1-23.1 15.4-35.5 3.1-5.2 5.5-9.6 5.3-9.7-.7-.8-24.5 8.1-31.6 11.8-8.1 4.2-18.2 12.8-22.7 19.3l-2 3-1.2-7c-1.7-9.3-1.5-25.5.3-34.1 3.2-15.4 10.4-28.3 23.4-41.5l6.5-6.6-4.4-.6c-2.4-.3-13.6-1.3-24.9-2.2-11.3-.9-20.6-1.7-20.8-1.9-.9-.8 4.6-12.3 8.2-17.2 6.5-8.8 14.6-13.7 28.2-16.9 5.4-1.3 9.7-1.5 19.8-1l12.8.5-.4-7.2c-.4-8.2-2.8-13.9-8.6-20.1l-3.7-3.9 10 .6c33.9 2 58.7 19.3 71.6 49.8 1.7 4.1 3.4 7.8 3.9 8.2 1 1.1 12.4-11.4 17.1-18.7l3.8-5.9 4.1 8.9c22 47.7 27.5 59.4 28.1 59.4.3 0 2.9-1.8 5.7-4.1 7.2-5.7 11.3-14.2 11.5-23.7.1-6.8.1-7 2.2-5.6 5.6 3.7 16.7 21.2 27.5 43.7l6.8 14.2.1-13.5c.1-15.5-1-23.5-4.6-34-4.8-14-12.3-27.4-25-44.3-4-5.3-6.9-9.7-6.4-9.7 2.8 0 11.7 8 19.4 17.4 5 6.2 8.7 10 8.7 8.9-.2-6.9-2.2-23.5-3.4-27.7-2.3-7.9-8.1-15.9-21.3-29.8-6.6-6.9-14-15-16.3-17.9-4.2-5.3-9.4-14.9-8.5-15.8.9-.8 11.1 6.7 22 16.2 6 5.3 11 9.5 11.1 9.4.8-.7-5.1-28-7-32.7-5.7-14-15.3-24.1-36.3-38.1-7.4-5-15.3-10.7-17.5-12.7-3.9-3.5-9.8-11.6-9.8-13.4 0-3 15.5 2.7 35.6 13.1 8.5 4.4 15.4 7.9 15.4 7.8 0-2.2-5.4-18.6-7.5-22.7-3.5-7-13.7-17.1-24-23.9-4.4-2.9-20.6-11.5-36-19.1-20.3-10-29.2-14.9-32.5-18-4.1-3.8-4.3-4.2-2.6-5.2 4.2-2.4 27.7 2.6 55.9 11.9 9.3 3 17 5.3 17.2 5.1.6-.6-14.3-19.9-19.8-25.6-10.6-11-26.2-19.8-42.2-24-4.4-1.2-16.3-3.3-26.5-4.7-21.9-3.1-25.6-3.9-33.6-7.5-10.5-4.7-18.5-13.8-15.4-17.5 4.6-5.5 23-9.8 52.1-12.1 11.2-.8 20.5-1.7 20.6-1.8.7-.7-29.1-12.7-35.8-14.5-22.3-6-41.3-5.2-84 3.4-22 4.4-28.5 5.1-33.3 3.5-2-.6-3.6-1.5-3.6-1.9 0-1.1 6.6-4.6 13.3-7.1 3.1-1.2 14.2-4.3 24.5-7 13.4-3.4 18-4.9 16.2-5.4-1.4-.3-9.5-1.8-18-3.3-19.7-3.4-43.6-3.8-57-1-13.2 2.8-27 7.8-44.6 16.1-18.2 8.6-25.8 10.9-30.5 9.6-13.4-3.9-3.8-14.1 29.6-31.5 8.3-4.3 15.2-7.9 15.4-8.1.5-.5-24.4-.2-28.4.3z"/></svg><svg version="1.0" viewBox="0 0 640 1280" id="img-3" xmlns="http://www.w3.org/2000/svg"><path d="M355.7 1.4c-4.7 1.7-6.2 2.9-10 8.5-3.9 5.8-4.3 6.1-9.5 6.1-7.3 0-12.5 3.3-16.7 10.5-1 1.7-1.4 1.6-5.2-1.2-2.3-1.6-6.3-3.8-8.9-4.8l-4.7-1.8-1.9 2.3c-2.1 2.6-2.3 6.2-.6 9.3 1.6 3.1 3.7 4.5 8.6 5.8 2.3.6 4.5 1.5 4.8 2 .3.5-2 2.5-5.1 4.4-5.1 3.3-7.4 5.9-6.3 7 .2.2 4.6.9 9.8 1.5 12 1.4 13.8 1.8 14.9 3.9.8 1.5 1.6 8.3 3.6 32.9l.6 6.3-4.3 3.7c-6 5.3-11.2 10.9-15.5 16.8-5.8 8-9.2 9.8-18.6 10.3l-7.9.3-4.6-5c-2.6-2.7-8.5-11.2-13.2-18.7-10.2-16.5-16.5-22.8-28.3-28.4-7-3.4-9.1-5-14.2-11.1-6.2-7.4-9.9-10.7-15-13.2-3.1-1.6-15.9-4.3-25.7-5.4-5-.5-6.1-1.1-9.2-4.5-6.2-7-13.8-8.4-21.8-4.3-2.5 1.3-4 1.3-10.3.3-4.2-.6-12.5-1-19.2-.7-16.4.6-23.8 4-28.4 13-4.6 8.9-.4 25.3 11.7 45.9 3.8 6.6 4.4 8.3 4.4 13.3 0 9 4 14.4 12.1 16.6 4.8 1.3 7.3 4.5 13.6 17.5 5.7 11.8 11.5 18.3 18.8 21 2.8 1 7.7 2.9 11 4.2 3.3 1.4 12.7 4.9 20.9 7.9 19.3 6.9 40.6 19.4 40.6 23.8 0 .7-1.2 4.1-2.7 7.7-2.5 5.9-2.8 7.5-2.8 19.7s-.2 13.5-2 14.8c-2.8 2.2-7.1 1-11.6-3-6.2-5.7-10.4-6.4-21.8-3.7-5.3 1.3-10.2 2.5-10.8 2.7-2.6.7-1.2 3 3.5 5.7 2.6 1.5 6.2 3.9 8.1 5.2 4.1 3 9.1 4.5 15.1 4.5 5.9 0 9 2.1 9 6.3 0 2.8-1.5 4.7-12 14.8-11.5 11.2-13.6 13.9-10.7 13.9.8 0 1.9 1.1 2.5 2.5 2.3 5.1 9.5 2.1 16.1-6.9 4.6-6.2 6.2-6.9 14.7-6.9 5 0 7.3.7 13.3 3.8 14.2 7.4 17.2 4.9 23.1-18.7 4-15.7 4.3-16.2 7.5-12.3 3.1 3.8 15.8 28.6 22.4 43.7 9.6 22.3 13 33.8 15.6 54 3.5 27.7 7.9 44.9 14.4 57.3 4 7.7 6.5 19.8 5.6 27.1-.3 3-1 5.4-1.4 5.4-.5 0-3.8-2-7.5-4.4-8-5.4-36.1-19.3-41.3-20.4-5.1-1.1-9.7 0-14.6 3.4-6.5 4.6-10.1 11-15.7 27.8-5.2 15.7-8.4 22.1-11 22.1-1.2 0-1.5-1.7-1.6-7.6-.2-8.6-1.4-11.2-7.3-15.3-5.2-3.6-7.5-3.4-9.5.9-1.5 3.1-1.6 4.4-.5 9.3.6 3.1 2.4 8.6 4 12.1 3.7 8.2 4.8 14.1 2.6 14.1-1.5 0-10.9-6.9-12.2-9-.4-.6-2.5-2.5-4.7-4.1-4.6-3.3-10.5-3.8-14.8-1.4-1.4.8-3.8 1.5-5.5 1.5-6.2.1-6.4 1.2-2 9.6 2.2 4.2 5.9 9.7 8.1 12.3 3.8 4.2 4.8 4.7 12.5 6.5 9.2 2.1 12.9 3.9 12.9 6.2 0 4.1-10.9 13.8-19 17-7.1 2.7-9.7 5-12.5 10.9-1.7 3.8-3.8 6.4-6.6 8.2-3.9 2.6-5.6 5.9-4.5 8.8 1.2 3.3 18 .8 25.5-3.7 2-1.2 7-5.4 11.2-9.4 8.4-8.1 10.9-9.4 17.6-9.4 10.2 0 16.3 8.4 16.3 22.4 0 8.3 1.7 17.3 4.5 24.3 1.6 4.1 5.3 6.7 7.9 5.7 2-.8 9.8-25 9-27.8-.3-1.1-2.1-4.4-3.9-7.1-1.8-2.8-4-7.3-4.9-10.1l-1.7-5.1 5.9-6c6.4-6.6 10.7-13.1 17.3-26.6 2.4-4.8 4.9-8.7 5.5-8.7 1.4 0 11 10.6 19.9 21.9 3.2 4 7.1 8.1 8.7 9 1.6.9 3.1 2.7 3.5 4.1.4 1.4-.1 11.7-1.1 23-.9 11.3-2.4 28.6-3.3 38.5-1.8 21.7-1.3 45.1 1.7 70.5 5.7 48.6 16 89.5 36.1 143.4 11.6 31.1 16.4 42.3 32.2 75.1 23.1 48.1 31.5 67.9 40.6 95.1 10.1 30.6 13.2 47.2 13.8 75.4.6 23.6-.7 38.3-5.2 60.8-6.8 33.3-22.5 64.3-44.7 87.7-10.8 11.4-13.5 13.6-57.1 46.7-23.7 18.1-34.7 27.1-40.6 33.5-10.1 10.7-10.4 12.9-2 12.7 4.6-.1 6.8-.8 11.5-3.6 9.8-5.9 24.1-12.7 40.5-19.3 20.1-8.1 34-15.1 44.8-22.5 28.8-19.8 55.1-52 74.1-90.5 11.6-23.6 15.8-37.2 19.2-62.5 1.6-12.4 1.6-49.1-.1-65-5.1-49.1-18.8-103.7-46.9-187-4.9-14.6-10.4-31.2-12.2-37-1.7-5.8-4.9-15.9-7-22.5-6.8-21.2-11.7-44.7-15.2-73-1.7-13.4-1.3-40.1.9-54.5 1.3-8.3 1.8-17.7 1.8-33.5v-22l3.3-11.1c4.1-13.5 4.5-14.3 6.9-12.7 6.7 4.7 17.7 10.6 29.5 15.8 7.5 3.4 14.4 6.8 15.4 7.5 2.3 2 1.5 11-2.7 30.1-2.3 10.5-3.1 17.1-3.2 24.4 0 11.6 1 17.3 6.5 34.5 2.7 8.7 4.7 17.7 6.3 29.5 3 21.1 3.7 23.7 8.2 28.6 5 5.6 8.4 7.3 10.9 5.4 1.9-1.3 1.8-1.5-.3-7.8-2.1-5.9-2.1-6.7-.8-9.4.8-1.6 1.7-5.4 2.1-8.6.6-5.1.4-6.3-2.6-12-3-5.9-3.1-6.6-1.9-9.2 2.2-4.4 4.1-5.1 9.1-3.4 5 1.6 12.7 9 21.2 20.3 3.1 4.1 6.9 8.4 8.4 9.5 1.6 1.1 7 3.1 12.2 4.6 5.2 1.5 10.3 3.1 11.3 3.7 1.4.7 2.3.6 3.4-.5 1.3-1.3 1.3-1.7 0-3.8-.8-1.3-1.8-4.5-2.1-7-1-6.6-5.3-12.6-16.4-22.7-15.6-14.2-15.4-13.9-15-16.9.7-6 12.9-12.2 30.3-15.3 5.5-1 10.8-2.2 11.7-2.5 2.7-1.1 3.1-3.7.8-6.5-1.1-1.4-2.9-4.2-4-6.3l-2-3.7h-6.8c-4.3 0-9.4.9-14.3 2.4-6.4 2-12.8 3.1-16.2 2.7-.4-.1 1.5-3.1 4.3-6.7 10-13 12.1-20 7.5-24.7-5.8-5.7-11.1-4-18.3 6l-4.7 6.5-.3-6.6c-.2-5.1.7-11 3.8-24.4 5.3-22.7 5.2-27.1-.8-39.7-5.1-10.6-10.6-18.4-19.7-28.3-7.2-7.8-25.8-23.6-36.8-31.5-3.7-2.6-7.2-5.8-7.7-7.2-1.4-3.6.6-23.2 3.5-36 6.4-27.5 8.6-39.4 9.5-52.3 2.7-37.3-5.6-76.4-24.4-115.7-11.5-23.9-23.1-41.1-39-57.7-10.7-11-14-15.7-20.9-29.5-2.6-5-6.9-13-9.7-17.8-7.3-12.2-9-16.3-9-21.8 0-8.8 4.5-14.5 19.1-24.5 8.8-5.9 12.9-10.1 16.1-16.2 2-3.8 2.3-6 2.3-14.6 0-9.6-.2-10.3-3.7-17.5-2.1-4-8.3-13.7-13.8-21.3-10.7-14.9-11.7-17.6-7.7-21.4 3-2.9 9.4-4.1 20.8-4.2 6.4 0 10.1-.4 11.4-1.4 1.7-1.3 1.6-1.6-2.6-6.6-2.4-2.8-5.1-5.6-6.1-6.1-2.6-1.4-7.8-1-13.8 1.1-3 1.1-5.8 1.9-6.2 2-1.9 0-.4-3 4-8.5C366.6 12.3 369 8 369 4.6c0-4.5-5.8-5.8-13.3-3.2z"/></svg><svg version="1.0" viewBox="0 0 1280 1002" id="img-4" xmlns="http://www.w3.org/2000/svg"><path d="M606.1 14.5c-6.3.8-22.1 3.3-35.1 5.5-37.7 6.4-45.4 7-83.8 7-35.4 0-47.1.7-62.9 4-37.3 7.7-78.8 31.1-111.2 62.5-28.7 27.9-43.7 48.6-86.1 118.5-26.6 43.9-30.9 50.7-43 68-10.3 14.7-13.3 20.5-16.3 30.8-2.1 7.5-2.2 9-1.9 54.2.1 27.9-.2 51.3-.8 58.5-3.1 33.7-11.9 54.9-38 91-31.2 43.3-38.2 53.2-50.7 72-44.5 66.7-58.2 98.8-53.3 124.6.6 3 1.3 7.4 1.5 9.9.2 2.5 1.6 8 3 12.3 13.2 40.4 59 82.2 113.5 103.5 29.6 11.5 48 15.2 79 15.9 35.8.8 61.9-3.1 102-15.4 10.7-3.2 27.8-9.9 29-11.2.3-.3 2.1-1.4 4-2.4s2.7-1.5 1.7-1.2c-8.3 2.4-4.6.6 8.1-3.9 28.2-10.1 51.5-19.9 75.2-31.7 26.3-13 34.4-18.2 57.5-36.4 19.5-15.5 29.3-22.2 36.5-25.2 6.5-2.7 8.1-2.8 7.4-.8-1.2 3.1.8 6.5 7.2 11.8 3.6 3 9.8 9.4 13.8 14.3 3.9 4.9 8.3 10 9.7 11.4 5 4.8 8.2 7.5 7.4 6.1-.6-1-.4-1.2.4-.7.7.5 1 1.5.7 2.3-.3.8-.2 1.2.3.8.5-.3 4.3 4.8 8.4 11.2 23.8 37.7 37.5 70.1 60.3 141.8 11.2 35.2 15.5 47.6 16.1 45.8 1.2-3.4-14.5-54.8-31.2-102.3-16.7-47.4-30.7-82.4-41.7-104.3-7.5-15.1-8.8-19.5-8.8-30.4 0-5.1.4-9.3.9-9.3s1.1-1.9 1.5-4.2c.4-2.4 2.2-9.8 4.2-16.6 2-6.8 3.3-13 3-13.8-.4-1-.2-1.2.6-.8.7.5.9.2.5-.9-.7-1.9 1.6-8.7 10.2-31 3.4-8.8 6-16.4 5.9-16.9-.2-.6-8 7.2-17.3 17.3-32.4 35.2-48.4 50.7-70.8 68.7-11.6 9.3-39.7 28-54.3 36-67.2 37.2-162 64.4-233.4 66.9-51.4 1.8-95-11.5-121.6-37.1l-6.9-6.6 2.7-2.4c1.4-1.3 6.3-3.8 10.7-5.5 10.5-4 18.4-9.4 30-20.6 21.6-20.8 38.6-45.3 41.1-59.1.4-2.7 1.3-7.7 2-11.1 3.2-16.6-9.2-29.7-34.5-36.4-11.1-3-32.5-3.1-52.5-.1-14.1 2.1-21.2 2.7-25.7 2.4-2-.2-2.1-.6-1.7-4.8.5-5.6.2-5 19.4-37.9 8.6-14.9 21-36.5 27.5-48 29.8-53.2 29.5-52.8 58.1-91 24.1-32.2 30.1-40.8 34.8-50.2 3.8-7.8 5.5-12.5 6-17.4.3-1.9.9-6.2 1.4-9.6 2.3-14.3-1.7-26-17.8-52.3-10.5-17-13.7-23.6-15.6-31.7-2.7-11.7.2-22.5 8.2-30.9 2.1-2.2 3-3 2-1.7-4.2 5.1 4.1 1.3 17.6-7.9 11.9-8.1 29.4-23.3 37.6-32.6 8.7-9.9 19.3-24.1 31.7-42.2 21.2-31.2 33.7-46.9 50.4-63.7 38.4-38.6 78.7-59.5 138.4-71.8 26.7-5.5 37.9-6.2 64.2-4.1 12.4 1 40.6 2.2 64.5 2.6 45.3.9 55 1.7 74.8 6.6 45.9 11.3 113.6 47 203.2 107.3 66 44.4 119.4 86.3 153.5 120.5 19.9 19.9 27.8 29.3 39.5 46.8 13.5 20.3 26.4 49.8 31 70.8.6 3 1.4 6.2 1.7 7 .4.8.5 2.1.4 2.8-.1.8.2 1.9.8 2.6 1.9 2.2 3.2 29.3 2.1 43.7-2.2 27.8-8.3 49.6-21.5 76.4-17.7 35.8-43.1 69.2-81.6 107-21.6 21.2-36.4 33.5-54.6 45.6-39.7 26-83.8 38.8-129.8 37.6-19.5-.5-28.6-2.2-38.2-7.1-25.4-12.8-37.9-45.8-42.4-111.6-1.3-19.9-.7-93.2 1.1-122.5.6-9.9 2.4-39.8 4-66.5 4.6-76.1 5.2-88.5 5.2-120.5 0-49-3.8-75.9-14.9-104-12.3-31.3-37.5-61.3-60.6-72.1-7.5-3.5-16.4-3.4-20.7.2-6.9 5.9-9.9 17.4-8 31.3.7 4.7 1.4 10.2 1.6 12.2.5 5.8 5.8 19.2 11 27.9 5.9 9.8 14.9 21.3 31.4 39.5 24.9 27.6 30.4 34.9 38.6 51.2 2.8 5.6 5.4 10 5.6 9.7.9-.9 2.8 11.5 3.9 26 2.1 26.4-1.3 68.9-13.1 163.6-10.2 81.3-12.4 107.2-12.4 141 0 21 .4 29 1.9 38.5 1 6.6 1.8 13.2 1.8 14.7 0 1.6.3 2.8.6 2.8s.6 1.5.7 3.3c.1 4.4 5.8 21.6 10.2 30.2 13.6 27.3 35.8 44.9 66.1 52.5 46.5 11.7 116.5-4.9 178.9-42.5 7.8-4.6 17.2-10.6 20.9-13.2 52-36 102.7-90.2 135.8-145.2 8.9-14.9 15.5-18.7 25.2-14.6 1.9.8 9.7 6.3 17.2 12.2 27.7 21.8 42.7 33.1 48.1 36.3l5.5 3.2-4-4.4c-2.2-2.3 2.8 2.3 11.1 10.5 8.3 8.1 15.8 14.7 16.7 14.7 2.7 0 2-3.2-2.2-11.5-11.3-21.7-45.6-61.2-77-88.5-15.1-13.1-14.4-10.2-8.1-32.3 2.2-7.6 4.2-15.7 4.4-18 .2-2.3 1.4-10.7 2.6-18.7 2.4-16.5 2.9-40.2 1-54-6.1-45.2-27.2-77.3-85-128.9C968.5 166.5 802.6 58.5 707.9 26.4c-14-4.7-28.8-8.5-42.4-11-12.7-2.2-44.8-2.7-59.4-.9zM346 825.5c-1.9.7-4.2 1.3-5 1.3-.8 0 .1-.6 2-1.3 1.9-.7 4.2-1.3 5-1.3.8 0-.1.6-2 1.3z"/><path d="M391 303.6c-17.1 3.3-21.7 9.5-17.6 24 .8 2.7 1.7 6.9 2 9.3 1.8 12.4 21.9 41.7 37 53.9 13.4 10.9 26.3 14.3 39.3 10.4 8-2.5 15.4-7.4 27.3-18.2 4.7-4.2 12-10.3 16.4-13.5 5.7-4.2 8.3-6.8 9.5-9.6 1.3-3.1 2.3-4 4.9-4.5 1.9-.4 3.6-1.3 3.9-2 2.2-5.9-11.9-21.4-25.7-28.1-14.6-7-33.3-12.4-63.5-18.3-15.6-3-28.5-4.3-33.5-3.4z"/></svg><svg version="1.0" viewBox="0 0 1280 944" id="img-5" xmlns="http://www.w3.org/2000/svg"><path d="M444.2 10.7c-5.2 12.7-7.6 19.9-11.1 33.6-5.9 22.8-6.6 29.1-6.6 56.7.1 22.7.3 26.6 2.3 35.9 4.2 19.2 9.8 34.4 17.3 47.2 2.1 3.7 3.9 7 3.9 7.2 0 .3-3.6-1-8.1-2.9-21.8-9.2-45.6-23.5-62.9-38-24.3-20.2-43.6-42.9-81.5-96.2l-13-18.3-.8 6.8c-2.9 26.7-7 80.6-7.4 99.3-.8 30.9 1.7 53.2 7.9 72.3 2.9 9.1 9.9 23.5 14.9 30.8l4.4 6.4-.1 13.5c-.6 55-28.3 98.4-83.4 131-6.6 3.9-17.2 9.6-23.5 12.6-6.3 3-11.5 5.7-11.5 6 0 1 4.1 4.2 13.4 10.5 21 14.2 40.5 21.1 64.5 22.7l10.6.7-16 6.2c-69.3 26.7-117.4 39.4-160 42.3-29.5 2-62.4-2.3-84.6-11-2.8-1.1-4.8-1.6-4.4-1.1.6 1.1 38.3 32 49.9 41 19 14.8 44.6 28.9 63.6 35.1 22 7.2 47.2 10.1 70.8 8.2 16.8-1.4 34.3-4.2 48.6-7.8 5.4-1.4 10-2.3 10.3-2.1.6.7-9.8 6.4-19.6 10.6-21 9.3-43.8 14.3-73.5 16.3-30.8 2-64.5-.8-128.1-10.6-15.9-2.5-29-4.4-29.2-4.3-.1.2 4.4 3.7 10 7.9 60.6 44.9 136.8 79.1 200.1 89.8 17.6 3 16.9 2.9 32.7 4 13.4.9 33.7.2 44.7-1.5l3.7-.6-5 2.7c-6.7 3.6-17.2 7.2-27.5 9.4-26.8 5.9-57.1 5.1-104.8-2.5-8.4-1.4-16-2.5-16.9-2.5-.8 0 1.8 2.2 5.8 4.8 37 24 76.8 39 119.4 44.8 20.4 2.8 61 1.4 75.5-2.6 4.4-1.2 6.3-1.2 3.1.1-4.2 1.7-31.1 8.6-43.7 11.3-38.8 8.2-77.2 10.6-103.4 6.5-3.9-.6-7.3-.9-7.5-.7-.4.4 8.7 7.9 18 14.7 30.1 22.3 69.1 37 114.5 43.2 12.4 1.6 22.5 2.2 51 2.6l35.5.5 26.5 5.4c91.7 18.7 138.9 28.3 171.5 35 36 7.4 38 7.9 76.5 20.6 150.6 49.4 264.6 79.9 297.9 79.8 4.2 0 8-.7 10.6-1.9 6-2.7 33.4-31 70.1-72.1 13.1-14.7 64.5-73.9 70.2-80.8l3.5-4.2-.7-11.3c-2.3-36.4-11.5-66.9-40.7-135.8-10.7-25-11.3-26.8-11.3-33.4-.1-6.3.3-8 3.8-15 8.5-17.2 29.7-33.5 79.4-60.9l12.3-6.8 2.5 2.3c4.5 4.2 7.3 12.1 9.1 24.9.9 6.6 1.9 12 2.3 12 .8 0 8.1-12.7 11.5-20.1 3.9-8.6 6.5-20.3 6.5-29.1 0-4.3.3-7.8.6-7.8 1.7 0 13.6 9.4 16.3 12.9 3.9 4.9 7 11.8 7.1 15.3 0 4.8 1.8 3.1 5.9-5.5 6.8-14 8.6-26.8 5.7-40.5-.7-3.4-1.1-6.4-.8-6.7.8-.7 7.5 2.5 10 4.8 2.9 2.7 5.2 6.9 5.2 9.7 0 3.5 1.9 2.2 4.6-3.3 5.1-9.9 6.5-21.4 4.6-36.2-.6-4.2-.1-6.7 3.1-16.2 13.8-40.6 12.5-70.3-3.7-85.1-11.6-10.7-22.8-11.4-42.1-2.6-.6.2-2.6-6.4-4.8-15.3-6-24.7-15.2-45.9-25.7-59.2-4.5-5.7-14.3-13.8-14.8-12.3-.1.5 1.6 10.6 3.8 22.3 5.1 26.5 6.2 45 3.6 59.4-2 10.4-3 11.7-16.1 22-23.4 18.3-40.1 25.2-100.5 42-32.4 9-54.6 18-70.1 28.5-3.2 2.2-6 4-6.2 4-.3 0-1-1.4-1.7-3.1-.9-2.1-1.1-6-.7-13.2 1.7-26.5 15-64 31.4-88.4 11.3-16.8 27-31.1 42.8-39.1 8.6-4.3 31.7-13.6 47.8-19.3l13.8-4.9 2.9 4.6c5 8 6.1 18.3 3.9 38.2-.6 5.4-.9 11.6-.7 13.8.3 3.7.7 3.2 9.4-14.2 11.4-22.8 14.5-31.9 15.1-44.4.5-9.2-.3-13.5-4.1-22.1-.6-1.3.9-2.3 7.6-4.9 25.2-10.1 46.2-24.6 54.7-37.9 13.6-21.4 7.6-47.4-17.8-76.8-5.2-6.1-6.8-8.6-6.5-10.4.2-1.3 1.8-11.2 3.6-21.9 2.7-16.4 3.2-22.2 3.2-36.5 0-18.6-1.6-27.3-7.3-41.3-3.4-8.1-3-8-18-1.7-18.7 7.9-35 18.7-54.5 36l-11.5 10.1-12.3 2.3c-81.8 15-157.4 43-218 80.7l-11.8 7.3-7.3-3c-26.8-11.1-75.4-24.7-105.2-29.5-15.9-2.5-42.8-3-56.5-.9-13.3 1.9-52.1 9.8-75.9 15.4l-16.3 3.8-10.7-1.7c-35.2-5.8-58.6-16.8-79.9-37.4C497.6 86.5 490.3 75.7 472 41c-11.6-22.1-21.9-40-23.1-40-.4 0-2.5 4.4-4.7 9.7z"/></svg></svg>