<?xml version="1.0" standalone="no"?>
<!DOCTYPE svg PUBLIC "-//W3C//DTD SVG 20010904//EN"
 "http://www.w3.org/TR/2001/REC-SVG-20010904/DTD/svg10.dtd">
<svg version="1.0" xmlns="http://www.w3.org/2000/svg"
 width="1280.000000pt" height="919.000000pt" viewBox="0 0 1280.000000 919.000000"
 preserveAspectRatio="xMidYMid meet">
<metadata>
Created by potrace 1.15, written by Peter Selinger 2001-2017
</metadata>
<g transform="translate(0.000000,919.000000) scale(0.100000,-0.100000)"
fill="#000000" stroke="none">
<path d="M5170 8902 c-22 -8 -30 -23 -30 -64 0 -82 40 -193 119 -327 23 -41
47 -86 53 -100 5 -14 16 -39 23 -56 8 -16 35 -82 60 -145 80 -200 164 -372
345 -705 32 -60 41 -76 85 -150 13 -22 38 -68 56 -102 18 -35 37 -63 41 -63
13 0 48 -63 48 -87 0 -12 9 -27 21 -33 11 -7 27 -28 36 -48 8 -20 23 -46 33
-57 10 -11 41 -63 68 -116 27 -52 67 -124 89 -160 22 -35 59 -98 83 -139 23
-41 62 -104 86 -140 l43 -65 -54 -5 c-115 -11 -163 -92 -130 -221 4 -17 1 -40
-10 -62 -9 -20 -14 -40 -11 -45 8 -13 -13 -29 -49 -38 -46 -11 -136 -68 -180
-113 -41 -43 -55 -50 -55 -27 0 7 -7 20 -17 27 -9 8 -38 59 -64 114 -69 142
-90 176 -236 372 -37 49 -39 53 -18 53 19 0 19 24 0 40 -13 11 -18 10 -30 -6
-15 -22 1 -32 -125 80 -130 116 -483 360 -705 487 -49 29 -99 59 -110 68 -21
17 -39 27 -125 74 -30 17 -67 38 -82 49 -14 10 -29 18 -32 18 -4 0 -35 17 -69
38 -34 22 -84 51 -112 67 -27 15 -102 58 -165 95 -63 37 -158 91 -210 120 -52
30 -111 66 -130 80 -19 15 -51 33 -70 40 -19 7 -102 45 -185 85 -82 40 -172
80 -200 90 -27 9 -86 31 -130 50 -102 43 -239 91 -290 104 -22 5 -69 21 -104
35 -36 14 -72 26 -81 26 -9 0 -21 5 -27 11 -14 14 -174 49 -225 49 -58 0 -222
35 -244 52 -6 4 -19 6 -28 2 -8 -3 -37 4 -63 17 -37 18 -62 23 -110 21 -35 -1
-75 -7 -90 -13 -15 -6 -77 -9 -138 -9 -246 4 -571 -17 -599 -39 -6 -4 -38 -13
-71 -20 -33 -7 -64 -17 -70 -21 -5 -4 -39 -18 -75 -30 -95 -32 -98 -33 -183
-73 -42 -21 -86 -37 -97 -37 -10 0 -25 -8 -32 -18 -7 -9 -38 -39 -69 -65 -31
-26 -63 -62 -69 -80 -7 -17 -22 -39 -33 -48 -16 -13 -21 -32 -25 -93 -4 -72
-4 -76 17 -76 16 0 21 -6 21 -28 0 -15 -4 -32 -9 -38 -5 -5 -14 -27 -21 -49
-7 -22 -25 -56 -40 -75 -36 -45 -62 -110 -54 -129 4 -9 6 -23 5 -32 -1 -8 10
-28 25 -44 20 -21 24 -34 19 -54 -4 -14 -8 -38 -9 -53 -2 -15 -9 -34 -16 -43
-14 -16 -113 -85 -122 -85 -3 0 -20 -13 -38 -30 -18 -16 -38 -30 -46 -30 -7 0
-17 -7 -22 -16 -5 -9 -26 -26 -48 -38 -21 -12 -39 -26 -40 -31 0 -6 -4 -21 -8
-35 -10 -36 26 -117 59 -132 14 -6 25 -17 25 -24 0 -7 17 -18 38 -24 100 -32
179 -86 208 -143 11 -21 20 -26 37 -22 32 8 44 -5 59 -60 7 -28 19 -54 26 -60
7 -5 14 -19 16 -30 2 -12 22 -40 44 -64 22 -24 47 -50 55 -59 8 -10 27 -26 41
-37 15 -11 31 -30 36 -43 6 -13 25 -29 44 -37 41 -18 102 -119 108 -180 3 -35
0 -40 -19 -43 -34 -5 -28 -22 7 -22 24 0 35 -8 54 -38 13 -20 31 -43 40 -51 9
-7 16 -21 16 -30 0 -9 13 -23 29 -32 15 -9 41 -34 57 -55 16 -22 37 -48 47
-59 37 -40 69 -117 64 -152 -5 -28 -2 -35 24 -50 29 -17 38 -33 19 -33 -5 0
-10 -9 -10 -20 0 -11 7 -20 15 -20 9 0 12 -6 9 -15 -4 -8 1 -17 10 -21 9 -3
16 -16 16 -29 0 -12 7 -28 14 -35 8 -6 20 -27 26 -46 10 -30 9 -38 -6 -55 -18
-20 -18 -20 7 -14 24 6 25 4 38 -68 7 -41 11 -81 9 -89 -3 -7 -1 -21 4 -30 5
-12 5 -26 -3 -39 -9 -18 -6 -26 24 -54 19 -18 40 -34 47 -37 7 -2 15 -22 16
-44 2 -26 11 -45 27 -59 20 -16 23 -25 17 -47 -7 -22 -4 -28 11 -33 10 -4 19
-12 19 -18 0 -7 20 -34 45 -61 25 -26 45 -52 45 -57 0 -4 17 -13 38 -18 20 -6
50 -24 66 -41 15 -17 42 -37 60 -46 46 -22 69 -36 104 -66 l32 -26 -32 -69
c-24 -54 -31 -83 -32 -138 -1 -58 -6 -77 -27 -111 -28 -43 -29 -91 -3 -101 18
-7 18 -22 -1 -43 -12 -13 -13 -22 -3 -47 10 -26 7 -44 -17 -119 -15 -49 -31
-96 -36 -104 -5 -8 -20 -36 -34 -62 l-25 -48 16 -72 c12 -53 24 -79 44 -98 37
-35 80 -122 73 -149 -4 -14 2 -27 16 -38 16 -14 22 -30 23 -66 0 -26 4 -50 9
-53 5 -2 7 -53 6 -112 -1 -94 1 -113 22 -155 13 -26 34 -55 47 -64 13 -8 24
-21 24 -29 0 -7 16 -16 35 -20 25 -4 44 -17 63 -43 15 -20 39 -49 54 -66 37
-40 64 -120 50 -149 -7 -16 -6 -29 4 -47 7 -13 13 -38 14 -55 0 -33 26 -62 73
-82 15 -6 27 -16 27 -22 0 -5 12 -10 26 -10 39 0 64 -18 64 -46 0 -17 7 -28
19 -31 11 -3 28 -25 39 -51 41 -97 45 -122 39 -227 -8 -120 8 -168 55 -173 22
-3 28 -9 28 -28 0 -21 4 -24 38 -24 21 0 94 11 163 24 122 24 198 27 291 12
26 -5 49 -14 52 -22 4 -10 14 -12 30 -8 20 5 37 -4 81 -39 30 -25 63 -48 73
-52 168 -57 177 -61 180 -80 2 -11 27 -37 55 -57 57 -41 97 -79 128 -120 12
-17 37 -32 62 -39 23 -6 56 -18 72 -27 17 -8 60 -17 97 -19 66 -4 123 7 323
59 68 17 96 19 189 14 83 -6 116 -12 136 -26 14 -10 39 -22 56 -26 16 -4 34
-11 40 -15 20 -16 138 -13 229 5 121 24 115 22 128 56 11 30 34 39 53 20 7 -7
18 -4 34 10 13 11 27 20 31 20 4 0 11 10 15 23 3 12 15 34 26 49 10 15 25 46
34 70 8 24 26 59 39 78 23 34 42 98 66 225 6 33 18 73 26 89 9 16 16 43 15 59
0 17 7 41 17 54 11 12 22 40 26 60 9 50 45 133 67 155 10 10 18 26 18 36 0 10
6 26 13 37 23 35 55 128 62 180 12 104 17 125 30 125 7 0 26 7 41 15 27 14 30
13 38 -5 6 -13 5 -29 -3 -46 -19 -42 -35 -326 -22 -391 12 -60 7 -107 -31
-278 -46 -209 -54 -300 -33 -386 3 -13 7 -70 9 -125 4 -134 23 -175 83 -188
46 -11 64 -36 43 -61 -24 -29 12 -47 140 -69 38 -6 143 -46 160 -61 8 -7 32
-18 52 -24 23 -8 53 -30 76 -57 l37 -44 137 -4 c115 -3 142 -7 164 -22 15 -11
38 -27 52 -36 14 -9 64 -57 112 -106 54 -56 101 -94 126 -104 40 -15 119 -14
130 3 3 5 16 9 28 9 24 0 51 12 97 43 22 15 52 18 185 19 88 1 166 -2 174 -7
24 -16 83 -35 107 -35 12 0 48 -13 80 -29 32 -16 80 -36 107 -45 27 -9 65 -28
84 -43 23 -17 37 -23 40 -15 6 18 42 14 49 -5 10 -25 80 -85 135 -115 45 -24
53 -26 85 -15 20 7 39 19 43 27 4 8 15 29 24 47 9 17 16 37 16 45 0 7 14 29
32 48 32 35 128 157 160 204 39 55 153 120 233 131 47 8 88 34 133 87 13 15
35 33 50 40 15 7 28 22 30 33 2 11 13 30 24 41 26 28 194 111 255 125 26 7 57
15 68 19 11 4 41 16 68 25 26 9 55 28 65 42 9 14 24 32 32 42 29 32 50 70 50
91 0 11 8 24 18 27 36 13 60 50 60 94 1 37 6 47 39 75 49 42 131 84 149 77 8
-3 14 -11 14 -19 0 -8 4 -14 10 -14 5 0 7 13 4 30 -8 36 7 56 47 65 21 5 31
14 35 33 4 15 12 32 19 37 6 6 15 26 18 45 4 19 12 58 18 85 7 28 12 64 13 80
1 17 6 39 12 50 6 11 14 35 17 53 6 30 5 32 -18 26 -22 -5 -25 -3 -25 19 0 32
12 40 35 23 17 -12 22 -10 51 20 17 19 42 50 55 69 13 19 27 35 31 35 12 0 69
128 77 173 4 24 12 41 19 39 7 -1 17 9 22 22 10 28 34 38 87 35 21 -2 48 3 60
9 12 7 40 12 62 12 23 0 41 3 41 8 0 4 24 18 53 32 28 14 54 28 57 31 11 13
120 79 179 108 68 33 100 64 101 99 0 12 10 31 23 41 12 10 44 37 70 60 27 23
54 41 60 41 7 0 18 9 25 20 7 11 19 20 27 20 8 0 18 6 22 13 14 22 81 67 101
67 18 0 66 13 107 30 11 4 39 13 63 20 23 7 42 16 42 19 0 4 12 12 28 19 15 6
47 25 72 40 25 16 65 32 89 36 32 5 58 20 100 55 74 65 174 111 248 116 57 3
153 16 264 34 54 9 155 57 179 86 6 8 9 19 5 25 -3 5 2 13 12 16 10 3 32 12
49 21 24 11 37 12 52 4 11 -6 34 -11 51 -11 16 0 33 -5 36 -11 4 -6 17 -14 29
-18 15 -6 23 -4 27 8 5 14 25 16 129 16 l122 0 38 43 c21 23 47 60 58 82 18
38 19 41 2 117 -10 43 -32 119 -50 168 -39 108 -46 146 -31 173 7 14 8 23 1
27 -18 11 -11 23 18 30 34 8 114 60 105 68 -3 4 -7 37 -8 74 -2 38 -6 108 -10
156 -5 61 -4 92 4 100 6 6 11 24 11 40 0 15 4 36 9 45 6 11 4 47 -6 97 -8 44
-16 109 -18 144 -2 63 -3 65 -39 83 -43 22 -47 40 -7 32 46 -10 43 9 -11 67
-55 59 -72 92 -64 125 6 22 -16 89 -31 96 -5 1 -21 20 -37 41 -37 50 -82 77
-127 77 -22 0 -51 10 -73 25 -20 14 -39 25 -41 25 -3 0 -28 18 -57 40 -29 22
-57 40 -62 40 -5 0 -31 16 -58 36 -27 19 -102 60 -166 90 -64 31 -130 66 -146
79 -47 35 -330 175 -355 175 -12 0 -62 14 -111 30 -49 17 -97 30 -106 30 -10
0 -31 4 -48 10 -17 5 -98 26 -181 46 -82 20 -160 43 -173 51 -16 10 -28 11
-41 4 -12 -7 -30 -7 -52 -1 -19 6 -50 10 -70 10 -55 0 -99 11 -99 25 0 27
-114 36 -124 9 -4 -11 -18 -14 -58 -12 -48 3 -53 5 -51 25 3 29 -31 39 -72 22
-17 -7 -41 -14 -55 -16 -45 -6 -242 -3 -465 7 -121 5 -283 13 -360 16 -104 4
-143 10 -151 20 -9 11 -25 13 -65 8 -30 -3 -77 -2 -106 4 -40 7 -55 6 -65 -4
-18 -19 -202 -24 -219 -6 -15 14 -43 16 -67 3 -9 -6 -87 -15 -172 -20 -481
-33 -705 -57 -970 -105 -267 -48 -471 -124 -569 -212 -25 -23 -61 -49 -79 -58
-18 -9 -36 -24 -39 -32 -15 -40 -58 4 -69 72 -4 31 -2 48 11 68 14 21 16 38
11 89 -6 53 -4 66 10 78 24 20 44 72 44 115 0 39 -19 104 -30 104 -4 0 -20 12
-36 26 -20 18 -25 28 -16 31 7 3 26 16 41 29 16 13 34 24 40 24 6 0 11 4 11 9
0 5 17 15 38 22 20 6 39 15 42 18 3 4 16 12 30 19 14 7 39 21 55 32 33 22 48
29 145 72 88 40 124 59 268 145 67 40 127 73 132 73 6 0 10 5 10 10 0 6 5 10
10 10 6 0 41 19 78 41 37 23 83 50 102 61 19 11 72 45 118 77 46 31 109 72
140 91 54 34 196 136 231 167 9 8 50 39 92 71 131 98 300 240 406 343 99 94
164 144 265 202 66 38 176 186 170 227 -8 51 -13 60 -35 60 -38 0 -204 -147
-279 -246 -37 -49 -109 -130 -160 -179 -51 -50 -113 -112 -137 -139 -46 -51
-357 -305 -430 -350 -24 -15 -67 -47 -96 -69 -77 -60 -133 -100 -186 -130 -25
-14 -52 -33 -59 -42 -8 -9 -30 -25 -49 -36 -20 -11 -58 -33 -86 -49 -27 -16
-61 -35 -75 -40 -14 -6 -29 -16 -35 -23 -5 -7 -32 -23 -60 -37 -85 -43 -210
-113 -215 -120 -3 -3 -20 -12 -37 -19 -18 -8 -33 -20 -33 -28 0 -10 -6 -13
-16 -9 -9 4 -28 -4 -45 -18 -16 -13 -43 -27 -61 -31 -18 -4 -40 -13 -48 -20
-8 -7 -26 -16 -40 -20 -14 -4 -27 -10 -30 -14 -3 -3 -36 -22 -75 -41 -38 -19
-72 -37 -75 -40 -6 -7 -75 -40 -84 -40 -4 0 -20 -10 -36 -22 -44 -32 -53 -17
-39 73 6 41 12 97 13 126 1 44 -1 50 -15 42 -10 -5 -15 -17 -12 -32 3 -15 -4
-34 -21 -54 -14 -17 -26 -42 -26 -55 0 -29 -38 -57 -45 -33 -3 8 -7 22 -10 30
-2 8 7 51 20 96 14 46 24 103 24 128 -1 26 -4 35 -6 21 -6 -36 -32 -91 -59
-123 -13 -16 -24 -37 -24 -47 0 -10 -4 -21 -9 -24 -13 -9 -51 -89 -51 -109 0
-27 -35 -40 -51 -19 -31 38 -41 64 -30 75 17 17 13 30 -9 24 -16 -4 -32 13
-85 92 -35 54 -76 122 -90 152 -31 65 -26 55 -147 261 -54 91 -98 177 -98 190
0 13 -9 29 -19 35 -11 7 -31 36 -46 65 -15 29 -35 62 -46 74 -10 11 -19 23
-19 27 0 9 -126 274 -151 317 -11 19 -29 55 -40 80 -11 25 -35 75 -54 112 -19
37 -46 96 -59 130 -13 35 -44 106 -68 158 -144 304 -179 400 -209 570 -10 57
-50 152 -78 183 -21 25 -43 35 -61 29z"/>
<path d="M5915 7000 c-3 -5 -1 -10 4 -10 6 0 11 5 11 10 0 6 -2 10 -4 10 -3 0
-8 -4 -11 -10z"/>
<path d="M9685 1430 c-3 -5 -1 -10 4 -10 6 0 11 5 11 10 0 6 -2 10 -4 10 -3 0
-8 -4 -11 -10z"/>
<path d="M2990 1390 c19 -13 30 -13 30 0 0 6 -10 10 -22 10 -19 0 -20 -2 -8
-10z"/>
<path d="M4826 984 c-4 -9 -4 -19 -1 -22 6 -6 35 18 35 29 0 16 -28 10 -34 -7z"/>
<path d="M5550 936 c0 -2 7 -9 15 -16 12 -10 15 -10 15 4 0 9 -7 16 -15 16 -8
0 -15 -2 -15 -4z"/>
</g>
</svg>
