<svg xmlns="http://www.w3.org/2000/svg" viewBox="0 0 24 24" width="32" height="32">
  <path d="M12 .3a12 12 0 0 0-3.79 23.4c.6.1.82-.26.82-.58v-2c-3.34.73-4.04-1.6-4.04-1.6a3.18 3.18 0 0 0-1.34-1.76c-1.1-.74.09-.72.09-.72a2.52 2.52 0 0 1 1.84 1.24 2.56 2.56 0 0 0 3.5 1 2.56 2.56 0 0 1 .76-1.6c-2.67-.3-5.48-1.34-5.48-6a4.7 4.7 0 0 1 1.24-3.3 4.3 4.3 0 0 1 .12-3.26s1-.32 3.3 1.24a11.3 11.3 0 0 1 6 0c2.28-1.56 3.28-1.24 3.28-1.24a4.3 4.3 0 0 1 .12 3.26 4.7 4.7 0 0 1 1.24 3.3c0 4.7-2.82 5.7-5.5 6a2.87 2.87 0 0 1 .82 2.24v3.32c0 .34.22.7.82.58A12 12 0 0 0 12 .3"/>
</svg>
