<?xml version="1.0" encoding="iso-8859-1"?>
<!-- Uploaded to: SVG Repo, www.svgrepo.com, Generator: SVG Repo Mixer Tools -->
<!DOCTYPE svg PUBLIC "-//W3C//DTD SVG 1.1//EN" "http://www.w3.org/Graphics/SVG/1.1/DTD/svg11.dtd">
<svg fill="#000000" version="1.1" id="Capa_1" xmlns="http://www.w3.org/2000/svg" xmlns:xlink="http://www.w3.org/1999/xlink" 
	 width="800px" height="800px" viewBox="0 0 54.938 54.938"
	 xml:space="preserve">
<g>
	<g>
		<path d="M4.073,46.141h5.951H12.3h2.878h6.995h4.744h4.442h13.557h5.951c0.553,0,1-0.446,1-1V14.005c0-0.553-0.447-1-1-1H4.073
			c-0.553,0-1,0.447-1,1v12.664v6.978v11.494C3.073,45.693,3.52,46.141,4.073,46.141z M10.282,40.023
			c0-4.344,1.632-8.305,4.298-11.334l1.282,1.271c0.039,0.039,0.081,0.074,0.126,0.106c0.67,0.475,1.353,1.045,1.701,1.407
			c-0.367,0.645-0.966,1.994-1.955,4.936c-2.959,1.82-2.883,2.625-2.73,3.111c0.015,0.504-0.326,2.496-0.68,4.233l-0.415,0.384H10.8
			C10.463,42.785,10.282,41.404,10.282,40.023z M43.968,35.297c0.449,1.559,0.69,3.143,0.69,4.727c0,1.373-0.183,2.755-0.52,4.117
			h-10.89c0.825-1.209,1.776-2.593,2.206-3.217l3.3-0.658c0.185-0.035,0.353-0.123,0.489-0.25c0.853-0.801,1.568-1.537,1.63-2.222
			c0.278-0.405,1.046-1.303,1.752-2.073L43.968,35.297z M41.77,33.893c-0.164,0.053-0.314,0.146-0.432,0.272
			c-1.781,1.918-2.451,2.808-2.52,3.399c-0.16,0.199-0.443,0.504-0.742,0.796l-3.409,0.681c-0.255,0.051-0.479,0.198-0.628,0.413
			c0,0-2.094,3.034-3.211,4.687H27.84c-0.069-0.933-0.109-1.686-0.109-1.898c0-0.393,0-1.178-3.315-3.28l1.237-1.979
			c1.118-0.971,3.018-2.52,3.701-2.821c0.432-0.19,1.693-0.749,0.764-5.974l4.953-1.048c0.365-0.078,0.658-0.354,0.758-0.715
			l0.326-1.195c3.185,1.878,5.713,4.775,7.144,8.182L41.77,33.893z M34.059,25.309l-5.317,1.126
			c-0.539,0.114-0.884,0.643-0.772,1.182c0.419,2.02,0.592,4.178,0.395,4.803c-1.253,0.651-3.65,2.729-4.14,3.155
			c-0.073,0.063-0.137,0.139-0.188,0.222l-1.849,2.958c-0.143,0.228-0.188,0.503-0.125,0.765c0.063,0.261,0.228,0.485,0.458,0.623
			c1.42,0.854,2.85,1.886,3.216,2.313c0.012,0.351,0.048,0.966,0.101,1.687h-3.664h-6.995h-0.894
			c0.604-2.939,0.725-4.168,0.711-4.717c0.325-0.33,1.217-0.973,2.083-1.49c0.205-0.121,0.36-0.314,0.437-0.543
			c0.686-2.062,1.616-4.531,1.954-5.017c0.255-0.231,0.396-0.559,0.388-0.909c-0.008-0.334-0.025-1.113-2.645-2.98l-1.226-1.215
			c3.048-2.747,7.066-4.436,11.482-4.436c2.374,0,4.674,0.514,6.861,1.476L34.059,25.309z M5.073,15.005h44.794v29.136h-3.664
			c0.302-1.363,0.455-2.742,0.455-4.117c0-2.112-0.36-4.226-1.071-6.278c-0.001-0.002,0-0.004-0.001-0.006s-0.002-0.003-0.003-0.005
			c-0.003-0.008-0.005-0.016-0.007-0.022c0-0.001,0-0.001,0-0.002v-0.001c-0.004-0.007-0.002-0.015-0.004-0.021
			c-0.004-0.008-0.012-0.015-0.016-0.022c-1.671-4.745-5.072-8.59-9.587-10.826c-0.001,0-0.002,0-0.002-0.001
			c-0.007-0.003-0.015-0.006-0.021-0.009c-0.021-0.01-0.039-0.02-0.061-0.027c-2.662-1.303-5.492-1.966-8.419-1.966
			c-10.58,0-19.188,8.608-19.188,19.189c0,1.38,0.154,2.759,0.455,4.117H5.071V33.645v-6.977V15.005H5.073z"/>
		<path d="M53.938,5.613H1c-0.553,0-1,0.447-1,1V30.01v4.146v14.168c0,0.553,0.447,1,1,1h10.299h3.209h4.204h8.569h1.521h14.84
			h10.296c0.553,0,1-0.447,1-1V6.613C54.938,6.06,54.49,5.613,53.938,5.613z M52.938,47.324h-9.296h-14.84h-1.521h-8.569h-4.204
			h-3.209H2V34.156V30.01V7.613h50.938V47.324z"/>
		<path d="M49.691,11.344h1.226c0.553,0,1-0.447,1-1c0-0.553-0.447-1-1-1h-1.226c-0.553,0-1,0.447-1,1
			C48.691,10.897,49.139,11.344,49.691,11.344z"/>
		<path d="M39.174,11.344H40.4c0.553,0,1-0.447,1-1c0-0.553-0.447-1-1-1h-1.227c-0.553,0-1,0.447-1,1
			C38.174,10.897,38.621,11.344,39.174,11.344z"/>
		<path d="M44.431,11.344h1.228c0.554,0,1-0.447,1-1c0-0.553-0.446-1-1-1h-1.228c-0.553,0-1,0.447-1,1
			C43.431,10.897,43.879,11.344,44.431,11.344z"/>
	</g>
</g>
</svg>