<?xml version="1.0" encoding="iso-8859-1"?><!DOCTYPE svg PUBLIC "-//W3C//DTD SVG 1.1//EN" "http://www.w3.org/Graphics/SVG/1.1/DTD/svg11.dtd"><svg viewBox="0 0 800 800" xmlns="http://www.w3.org/2000/svg" xmlns:xlink="http://www.w3.org/1999/xlink"><style>:root>svg{display:none}:root>svg:target{display:block}</style><svg viewBox="0 0 68.717 68.717" xml:space="preserve" id="development" xmlns="http://www.w3.org/2000/svg"><path d="m26.104 52.503-1.029 1.029c-.58.58-.9 1.352-.9 2.174 0 .82.32 1.592.9 2.172l2.631 2.631c1.16 1.16 3.185 1.162 4.346 0l1.029-1.029a20.624 20.624 0 0 0 5.909 2.441v1.462a3.076 3.076 0 0 0 3.072 3.073h3.721a3.077 3.077 0 0 0 3.072-3.073v-1.45a20.641 20.641 0 0 0 5.91-2.453l1.028 1.029c1.161 1.161 3.185 1.161 4.345 0l2.633-2.631c.58-.58.899-1.352.899-2.173s-.319-1.593-.899-2.173l-1.029-1.029a20.647 20.647 0 0 0 2.453-5.909h1.449c.82 0 1.594-.319 2.174-.899s.899-1.353.898-2.172V39.8c.001-.82-.318-1.592-.898-2.172s-1.354-.9-2.174-.9h-1.461a20.652 20.652 0 0 0-2.441-5.909l1.029-1.029c.58-.58.898-1.352.898-2.173 0-.82-.318-1.592-.898-2.172l-2.632-2.632c-.511-.511-1.19-.783-1.89-.845V5.261c0-1.654-1.346-3-3-3H3c-1.654 0-3 1.346-3 3v39.25c0 1.654 1.346 3 3 3h20.921a20.666 20.666 0 0 0 2.183 4.992zM19.129 39.8v2.211H7.001c-.551 0-1-.449-1-1v-25.5c0-.552.449-1 1-1h44.25a1 1 0 0 1 1 1v7.039a20.815 20.815 0 0 0-3.396-1.15v-1.461a3.076 3.076 0 0 0-3.072-3.072h-3.721a3.075 3.075 0 0 0-3.072 3.072v1.451a20.66 20.66 0 0 0-5.909 2.452l-1.029-1.029c-1.161-1.161-3.186-1.161-4.346 0l-2.631 2.631c-.58.581-.9 1.353-.9 2.173 0 .82.32 1.592.9 2.172l1.029 1.029a20.641 20.641 0 0 0-2.453 5.91H22.2c-.82 0-1.592.32-2.172.9s-.9 1.351-.899 2.172zm2.313 4.478a1.064 1.064 0 0 1-.313-.758v-3.721a1.067 1.067 0 0 1 1.073-1.071h2.252a1 1 0 0 0 .98-.804 18.643 18.643 0 0 1 2.777-6.692 1 1 0 0 0-.126-1.261l-1.597-1.598a1.06 1.06 0 0 1-.314-.758c0-.287.111-.556.314-.758l2.632-2.632c.404-.405 1.11-.405 1.517 0l1.596 1.597a1 1 0 0 0 1.262.126 18.65 18.65 0 0 1 6.691-2.776 1 1 0 0 0 .805-.98v-2.254c0-.592.48-1.072 1.072-1.072h3.721c.593 0 1.072.48 1.072 1.072v2.264c0 .477.336.887.803.979 1.611.325 3.145.866 4.593 1.58.721.354 1.428.738 2.103 1.187a.997.997 0 0 0 1.26-.126l1.598-1.596c.271-.273.68-.347 1.041-.252.176.047.343.119.475.251l2.633 2.632a1.072 1.072 0 0 1 0 1.517l-1.597 1.597a1 1 0 0 0-.125 1.261 18.722 18.722 0 0 1 2.767 6.693.998.998 0 0 0 .979.802h2.265a1.067 1.067 0 0 1 1.072 1.072v3.723a1.07 1.07 0 0 1-1.072 1.071h-2.252a.997.997 0 0 0-.98.804 18.661 18.661 0 0 1-2.776 6.691c-.264.396-.212.924.125 1.262l1.597 1.598c.203.201.314.472.314.758s-.111.556-.314.759l-2.631 2.631a1.099 1.099 0 0 1-1.517 0l-1.599-1.598a.998.998 0 0 0-1.26-.125 18.703 18.703 0 0 1-6.693 2.776 1 1 0 0 0-.803.98v2.253c0 .591-.479 1.073-1.072 1.073h-3.721a1.074 1.074 0 0 1-1.072-1.073v-2.264a.998.998 0 0 0-.803-.979 18.697 18.697 0 0 1-6.692-2.768 1 1 0 0 0-1.261.126l-1.597 1.597a1.098 1.098 0 0 1-1.518 0l-2.631-2.631a1.064 1.064 0 0 1-.314-.758c0-.287.111-.557.314-.76l1.598-1.596c.336-.339.389-.865.125-1.263a18.588 18.588 0 0 1-2.199-4.578 18.954 18.954 0 0 1-.568-2.114.999.999 0 0 0-.979-.803h-2.263a1.058 1.058 0 0 1-.767-.313z"/><path d="M30.52 49.804a15.694 15.694 0 0 0 9.404 7.006h.001a15.7 15.7 0 0 0 3.992.521l.007.002h.038l.007-.002a15.906 15.906 0 0 0 3.991-.521h.002l.014-.004a15.693 15.693 0 0 0 9.389-7.002l.002-.003a15.698 15.698 0 0 0 2.315-8.224c0-2.911-.8-5.754-2.315-8.223v-.002a15.693 15.693 0 0 0-9.391-7.003 15.842 15.842 0 0 0-4.007-.526l-.007-.002-.018.001-.02-.001-.007.002c-1.354.004-2.7.18-4.009.526a15.7 15.7 0 0 0-9.388 7.003l-.002.002c-1.514 2.469-2.314 5.313-2.314 8.223s.801 5.754 2.314 8.224c.001.001.002.001.002.003zm19.369 3.957c.6-1.479 1.081-3.188 1.432-5.074a25.38 25.38 0 0 1 3.468.967 13.598 13.598 0 0 1-4.9 4.107zm5.987-5.826c-1.269-.494-2.706-.906-4.248-1.225.17-1.316.272-2.67.31-4.049h5.442a13.423 13.423 0 0 1-1.504 5.274zm-.068-12.686a13.374 13.374 0 0 1 1.571 5.412H51.94a39.839 39.839 0 0 0-.312-4.217c1.513-.311 2.929-.713 4.18-1.195zm-1.12-1.713a25.581 25.581 0 0 1-3.367.932c-.334-1.799-.787-3.438-1.348-4.867a13.58 13.58 0 0 1 4.715 3.935zm-9.728-5.33c.81.061 1.594.197 2.354.396.875 1.614 1.578 3.768 2.037 6.215a37.03 37.03 0 0 1-4.393.365l.002-6.976zm0 8.977a39.275 39.275 0 0 0 4.678-.387c.158 1.256.255 2.546.285 3.865H44.96v-3.478zm0 5.478h4.956a37.569 37.569 0 0 1-.278 3.697 39.048 39.048 0 0 0-4.678-.388v-3.309zm0 5.311a37.49 37.49 0 0 1 4.394.366c-.479 2.553-1.227 4.776-2.152 6.412a13.37 13.37 0 0 1-2.24.366l-.002-7.144zm-11.895 1.69c1.053-.388 2.239-.712 3.498-.976.353 1.896.838 3.612 1.439 5.096a13.582 13.582 0 0 1-4.937-4.12zm9.895 5.458a13.713 13.713 0 0 1-2.271-.359c-.93-1.636-1.68-3.865-2.158-6.423a37.203 37.203 0 0 1 4.429-.366v7.148zm0-9.148a39.279 39.279 0 0 0-4.714.387 37.313 37.313 0 0 1-.278-3.696h4.992v3.309zm-2.386-17.381a13.275 13.275 0 0 1 2.386-.389v6.98a37.184 37.184 0 0 1-4.429-.367c.459-2.451 1.164-4.609 2.043-6.224zm-2.328 8.205c1.521.221 3.098.35 4.714.389v3.478h-4.999c.029-1.32.126-2.61.285-3.867zm-.328-7.217c-.564 1.435-1.02 3.082-1.355 4.889a25.348 25.348 0 0 1-3.396-.941 13.556 13.556 0 0 1 4.751-3.948zm-5.874 5.658c1.262.49 2.673.893 4.211 1.207a39.92 39.92 0 0 0-.311 4.217h-5.479a13.423 13.423 0 0 1 1.579-5.424zm3.903 7.424c.035 1.378.139 2.73.308 4.048-1.566.321-2.999.733-4.278 1.237a13.432 13.432 0 0 1-1.511-5.285h5.481z"/></svg><svg viewBox="0 0 24 24" id="github" xmlns="http://www.w3.org/2000/svg"><path d="M12 .3a12 12 0 0 0-3.79 23.4c.6.1.82-.26.82-.58v-2c-3.34.73-4.04-1.6-4.04-1.6a3.18 3.18 0 0 0-1.34-1.76c-1.1-.74.09-.72.09-.72a2.52 2.52 0 0 1 1.84 1.24 2.56 2.56 0 0 0 3.5 1 2.56 2.56 0 0 1 .76-1.6c-2.67-.3-5.48-1.34-5.48-6a4.7 4.7 0 0 1 1.24-3.3 4.3 4.3 0 0 1 .12-3.26s1-.32 3.3 1.24a11.3 11.3 0 0 1 6 0C17.3 4.8 18.3 5.12 18.3 5.12a4.3 4.3 0 0 1 .12 3.26 4.7 4.7 0 0 1 1.24 3.3c0 4.7-2.82 5.7-5.5 6a2.87 2.87 0 0 1 .82 2.24v3.32c0 .34.22.7.82.58A12 12 0 0 0 12 .3"/></svg><svg viewBox="0 0 98.861 98.861" xml:space="preserve" id="hosting" xmlns="http://www.w3.org/2000/svg"><path d="M73.847 30.236H25.016a2.833 2.833 0 0 0-2.836 2.828v9.628a2.833 2.833 0 0 0 2.836 2.828h48.831a2.831 2.831 0 0 0 2.832-2.828v-9.628a2.833 2.833 0 0 0-2.832-2.828zm-46.56 6.706a1.745 1.745 0 1 1 0-3.491c.967 0 1.746.782 1.746 1.745 0 .967-.779 1.746-1.746 1.746zm41.944 5.034H56.895v-4.097h12.337v4.097zM73.847 47.075H25.016a2.834 2.834 0 0 0-2.836 2.83v9.627a2.835 2.835 0 0 0 2.836 2.829h48.831a2.833 2.833 0 0 0 2.832-2.829v-9.627a2.834 2.834 0 0 0-2.832-2.83zm-46.56 6.708a1.743 1.743 0 0 1-1.747-1.746 1.747 1.747 0 1 1 1.747 1.746zm41.944 5.033H56.895v-4.098h12.337v4.098zM73.847 63.915H25.016a2.834 2.834 0 0 0-2.836 2.829v9.627a2.835 2.835 0 0 0 2.836 2.83h48.831a2.834 2.834 0 0 0 2.832-2.83v-9.627a2.834 2.834 0 0 0-2.832-2.829zm-46.56 6.706a1.745 1.745 0 1 1 0-3.49c.967 0 1.746.779 1.746 1.744a1.74 1.74 0 0 1-1.746 1.746zm41.944 5.033H56.895v-4.098h12.337v4.098zM57.864 88.409H52.66v-7.571h-6.456v7.571h-5.21v1.995H22.778v6.459h18.216v1.998h16.87v-1.998h18.215v-6.459H57.864z"/><path d="M78.253 14.706a2.441 2.441 0 0 1-1.757-.979C72.581 8.44 66.304 5.179 59.624 5.179c-.418 0-.837.013-1.256.038a2.428 2.428 0 0 1-1.613-.488A23.415 23.415 0 0 0 42.602 0a23.518 23.518 0 0 0-21.279 13.461 2.442 2.442 0 0 1-1.868 1.373C9.269 16.267 1.405 25.039 1.405 35.613c0 10.081 7.147 18.519 16.641 20.526v-6.234c0-.777.144-1.518.383-2.215-5.077-1.669-8.757-6.448-8.757-12.076 0-7.011 5.704-12.715 12.716-12.715.354 0 .702.028 1.049.056a4.135 4.135 0 0 0 4.342-3.114A15.267 15.267 0 0 1 42.601 8.268c4.01 0 7.805 1.548 10.685 4.36a4.133 4.133 0 0 0 3.729 1.088 12.81 12.81 0 0 1 2.609-.27c4.909 0 9.293 2.76 11.44 7.202a4.125 4.125 0 0 0 4.132 2.314c.43-.043.859-.064 1.275-.064 7.012 0 12.717 5.704 12.717 12.715 0 5.629-3.682 10.407-8.758 12.076.238.698.382 1.438.382 2.215v6.233c9.493-2.006 16.644-10.443 16.644-20.525-.001-10.969-8.465-20-19.203-20.906z"/></svg><svg viewBox="0 0 52.333 52.333" xml:space="preserve" id="html" xmlns="http://www.w3.org/2000/svg"><path d="M51.333 5.337H1a1 1 0 0 0-1 1v39.658a1 1 0 0 0 1 1h50.333a1 1 0 0 0 1-1V6.337a1 1 0 0 0-1-1zm-3.922 9.028v27.603H4.921V14.365h42.49z"/><path d="M11.79 28.308c.04.28.187.543.445.705l7.5 4.717a1.002 1.002 0 0 0 1.379-.315 1 1 0 0 0-.314-1.379l-6.189-3.893L20.8 24.25a1 1 0 1 0-1.065-1.693l-7.5 4.716a.978.978 0 0 0-.445.705c-.011.055-.004.107-.006.164.002.057-.005.111.006.166zM31.219 33.46a1.001 1.001 0 0 0 1.379.315l7.5-4.717a.977.977 0 0 0 .445-.705c.012-.055.004-.108.005-.164-.001-.056.007-.108-.005-.164a.992.992 0 0 0-.445-.705l-7.5-4.715a1 1 0 0 0-1.065 1.693l6.189 3.892-6.189 3.894a.995.995 0 0 0-.314 1.376zM24.478 33.84a1 1 0 0 0 1.247-.667l2.875-9.478a1.001 1.001 0 0 0-1.914-.581l-2.875 9.478a1 1 0 0 0 .667 1.248z"/></svg><svg viewBox="0 0 24 24" id="insta" xmlns="http://www.w3.org/2000/svg"><path d="M7 2C4.243 2 2 4.243 2 7v10c0 2.757 2.243 5 5 5h10c2.757 0 5-2.243 5-5V7c0-2.757-2.243-5-5-5H7zm10 2a3 3 0 0 1 3 3v10a3 3 0 0 1-3 3H7a3 3 0 0 1-3-3V7a3 3 0 0 1 3-3h10zm-5 3a5 5 0 1 0 0 10 5 5 0 0 0 0-10zm0 2a3 3 0 1 1 0 6 3 3 0 0 1 0-6zm4.5-2a1 1 0 1 0 0 2 1 1 0 0 0 0-2z"/></svg><svg viewBox="0 0 54.938 54.938" xml:space="preserve" id="site" xmlns="http://www.w3.org/2000/svg"><path d="M4.073 46.141H50.867c.553 0 1-.446 1-1V14.005a1 1 0 0 0-1-1H4.073a1 1 0 0 0-1 1v31.136a1 1 0 0 0 1 1zm6.209-6.118c0-4.344 1.632-8.305 4.298-11.334l1.282 1.271a.982.982 0 0 0 .126.106c.67.475 1.353 1.045 1.701 1.407-.367.645-.966 1.994-1.955 4.936-2.959 1.82-2.883 2.625-2.73 3.111.015.504-.326 2.496-.68 4.233l-.415.384H10.8a17.02 17.02 0 0 1-.518-4.114zm33.686-4.726c.449 1.559.69 3.143.69 4.727a17.16 17.16 0 0 1-.52 4.117h-10.89a981.026 981.026 0 0 1 2.206-3.217l3.3-.658a.984.984 0 0 0 .489-.25c.853-.801 1.568-1.537 1.63-2.222.278-.405 1.046-1.303 1.752-2.073l1.343-.424zm-2.198-1.404a1.023 1.023 0 0 0-.432.272c-1.781 1.918-2.451 2.808-2.52 3.399-.16.199-.443.504-.742.796l-3.409.681a1.001 1.001 0 0 0-.628.413s-2.094 3.034-3.211 4.687H27.84a40.173 40.173 0 0 1-.109-1.898c0-.393 0-1.178-3.315-3.28l1.237-1.979c1.118-.971 3.018-2.52 3.701-2.821.432-.19 1.693-.749.764-5.974l4.953-1.048c.365-.078.658-.354.758-.715l.326-1.195a17.338 17.338 0 0 1 7.144 8.182l-1.529.48zm-7.711-8.584-5.317 1.126a1 1 0 0 0-.772 1.182c.419 2.02.592 4.178.395 4.803-1.253.651-3.65 2.729-4.14 3.155a.955.955 0 0 0-.188.222l-1.849 2.958a.998.998 0 0 0 .333 1.388c1.42.854 2.85 1.886 3.216 2.313.012.351.048.966.101 1.687H14.285c.604-2.939.725-4.168.711-4.717.325-.33 1.217-.973 2.083-1.49a.999.999 0 0 0 .437-.543c.686-2.062 1.616-4.531 1.954-5.017.255-.231.396-.559.388-.909-.008-.334-.025-1.113-2.645-2.98l-1.226-1.215c3.048-2.747 7.066-4.436 11.482-4.436 2.374 0 4.674.514 6.861 1.476l-.271.997zM5.073 15.005h44.794v29.136h-3.664c.302-1.363.455-2.742.455-4.117 0-2.112-.36-4.226-1.071-6.278l-.001-.006-.003-.005-.007-.022v-.003c-.004-.007-.002-.015-.004-.021-.004-.008-.012-.015-.016-.022a19.09 19.09 0 0 0-9.587-10.826l-.002-.001-.021-.009c-.021-.01-.039-.02-.061-.027a18.994 18.994 0 0 0-8.419-1.966c-10.58 0-19.188 8.608-19.188 19.189 0 1.38.154 2.759.455 4.117H5.071V15.005h.002z"/><path d="M53.938 5.613H1a1 1 0 0 0-1 1v41.711a1 1 0 0 0 1 1H53.938a1 1 0 0 0 1-1V6.613a1 1 0 0 0-1-1zm-1 41.711H2V7.613h50.938v39.711z"/><path d="M49.691 11.344h1.226a1 1 0 1 0 0-2h-1.226a1 1 0 1 0 0 2zM39.174 11.344H40.4a1 1 0 1 0 0-2h-1.227a1 1 0 1 0 .001 2zM44.431 11.344h1.228c.554 0 1-.447 1-1 0-.553-.446-1-1-1h-1.228a1 1 0 1 0 0 2z"/></svg><svg viewBox="0 0 240 240" id="telegram" xmlns="http://www.w3.org/2000/svg"><path d="m180.4 78.4-24 113.6c-1.8 8.1-6.6 10.1-13.4 6.3L106 171l-17.8 17.1c-2 2-3.6 3.6-7.3 3.6l2.6-36.7L158 88.6c2.9-2.6-.6-4.1-4.5-1.5l-94.9 59.6L39.7 132c-7.7-2.4-7.9-7.7 1.6-11.4l131.3-54.5c6.7-2.5 11.9 1.2 7.8 12.3z"/></svg><svg viewBox="0 0 30 30" id="whatsapp" xmlns="http://www.w3.org/2000/svg"><path d="M15 3C8.373 3 3 8.373 3 15c0 2.251.632 4.35 1.71 6.15L3.108 27l5.975-1.568A11.935 11.935 0 0 0 15 27c6.627 0 12-5.373 12-12S21.627 3 15 3zm-4.107 6.402c.195 0 .395 0 .568.008.214.005.447.02.67.514.265.586.842 2.056.916 2.205.074.149.126.324.023.52-.098.2-.149.32-.293.497-.149.172-.312.386-.447.516-.149.15-.303.312-.13.61.171.296.769 1.27 1.652 2.056 1.135 1.014 2.092 1.326 2.39 1.475.298.149.47.126.643-.074.177-.195.743-.865.943-1.163.195-.298.394-.246.664-.148.274.098 1.735.818 2.033.967.298.149.494.223.569.344.077.125.077.72-.17 1.414-.247.693-1.46 1.363-2.004 1.41-.55.05-1.061.246-3.568-.74-3.024-1.191-4.932-4.289-5.08-4.489-.15-.195-1.211-1.61-1.211-3.07 0-1.465.768-2.183 1.037-2.48.274-.299.595-.372.795-.372z"/></svg><svg viewBox="-143 145 512 512" xml:space="preserve" id="wordpress" xmlns="http://www.w3.org/2000/svg"><path d="M-143 145v512h512V145h-512zm482 482h-452V175h452v452z"/><path d="M177.4 511.6c38-22.2 63.6-63.4 63.6-110.6 0-22.3-5.7-43.2-15.7-61.4.6 4.1.9 8.5.9 13.2 0 13-2.4 27.6-9.7 45.8l-39.1 113zM115.3 412.2 76.9 523.8c11.5 3.4 23.6 5.2 36.2 5.2 14.9 0 29.2-2.6 42.5-7.3-.3-.6-.7-1.1-.9-1.7l-39.4-107.8zM57.2 516.2-3.9 348.9C-11 364.8-15 382.4-15 401c0 50.6 29.4 94.5 72.2 115.2z"/><path d="M48.4 329.2c6.9-.4 7.7 9.7.8 10.6 0 0-6.9.8-14.6 1.2l46.6 138.6 28-84-20-54.6c-6.9-.4-13.4-1.2-13.4-1.2-6.9-.4-6.1-11 .8-10.6 0 0 21.1 1.6 33.7 1.6 13.4 0 34.1-1.6 34.1-1.6 6.9-.4 7.7 9.7.8 10.6 0 0-6.9.8-14.6 1.2l46.3 137.6 12.8-42.6c6.5-16.6 9.7-30.4 9.7-41.4 0-15.8-5.7-26.8-10.6-35.3-6.5-10.5-12.6-19.5-12.6-30 0-11.8 8.9-22.7 21.5-22.7.5 0 1.1.1 1.6.1-22.8-20.9-53.1-33.6-86.4-33.6-44.7 0-84.1 23-107 57.7 3 .1 5.8.2 8.2.2 13.6-.2 34.3-1.8 34.3-1.8z"/></svg></svg>