<?xml version="1.0" encoding="iso-8859-1"?>
<!-- Uploaded to: SVG Repo, www.svgrepo.com, Generator: SVG Repo Mixer Tools -->
<!DOCTYPE svg PUBLIC "-//W3C//DTD SVG 1.1//EN" "http://www.w3.org/Graphics/SVG/1.1/DTD/svg11.dtd">
<svg fill="#000000" version="1.1" id="Capa_1" xmlns="http://www.w3.org/2000/svg" xmlns:xlink="http://www.w3.org/1999/xlink" 
	 width="800px" height="800px" viewBox="0 0 68.717 68.717"
	 xml:space="preserve">
<g>
	<g>
		<path d="M26.104,52.503l-1.029,1.029c-0.58,0.58-0.9,1.352-0.9,2.174c0,0.82,0.32,1.592,0.9,2.172l2.631,2.631
			c1.16,1.16,3.185,1.162,4.346,0l1.029-1.029c1.828,1.114,3.812,1.935,5.909,2.441v1.462c0,1.694,1.377,3.073,3.072,3.073h3.721
			c1.693,0,3.072-1.379,3.072-3.073v-1.45c2.086-0.506,4.068-1.328,5.91-2.453l1.028,1.029c1.161,1.161,3.185,1.161,4.345,0
			l2.633-2.631c0.58-0.58,0.899-1.352,0.899-2.173s-0.319-1.593-0.899-2.173l-1.029-1.029c1.125-1.842,1.947-3.824,2.453-5.909
			h1.449c0.82,0,1.594-0.319,2.174-0.899s0.899-1.353,0.898-2.172V39.8c0.001-0.82-0.318-1.592-0.898-2.172s-1.354-0.9-2.174-0.9
			h-1.461c-0.508-2.098-1.326-4.08-2.441-5.909l1.029-1.029c0.58-0.58,0.898-1.352,0.898-2.173c0-0.82-0.318-1.592-0.898-2.172
			l-2.632-2.632c-0.511-0.511-1.19-0.783-1.89-0.845V5.261c0-1.654-1.346-3-3-3H3c-1.654,0-3,1.346-3,3v39.25c0,1.654,1.346,3,3,3
			h20.921C24.433,49.271,25.155,50.944,26.104,52.503z M19.129,39.8v2.211H7.001c-0.551,0-1-0.449-1-1v-25.5c0-0.552,0.449-1,1-1
			h44.25c0.552,0,1,0.448,1,1v7.039c-1.093-0.475-2.224-0.866-3.396-1.15v-1.461c0-1.694-1.379-3.072-3.072-3.072h-3.721
			c-1.695,0-3.072,1.378-3.072,3.072v1.451c-2.086,0.506-4.067,1.328-5.909,2.452l-1.029-1.029c-1.161-1.161-3.186-1.161-4.346,0
			l-2.631,2.631c-0.58,0.581-0.9,1.353-0.9,2.173c0,0.82,0.32,1.592,0.9,2.172l1.029,1.029c-1.125,1.842-1.947,3.824-2.453,5.91
			H22.2c-0.82,0-1.592,0.32-2.172,0.9S19.128,38.979,19.129,39.8z M21.442,44.278c-0.202-0.201-0.313-0.472-0.313-0.758V42.01
			v-2.211c0-0.286,0.111-0.555,0.313-0.758c0.203-0.203,0.473-0.313,0.76-0.313h2.252c0.477,0,0.887-0.337,0.98-0.804
			c0.48-2.394,1.415-4.645,2.777-6.692c0.264-0.396,0.211-0.924-0.126-1.261l-1.597-1.598c-0.203-0.202-0.314-0.471-0.314-0.758
			c0-0.287,0.111-0.556,0.314-0.758l2.632-2.632c0.404-0.405,1.11-0.405,1.517,0l1.596,1.597c0.336,0.337,0.865,0.391,1.262,0.126
			c2.047-1.362,4.299-2.296,6.691-2.776c0.469-0.094,0.805-0.504,0.805-0.98v-2.254c0-0.592,0.48-1.072,1.072-1.072h3.721
			c0.593,0,1.072,0.48,1.072,1.072v2.264c0,0.477,0.336,0.887,0.803,0.979c1.611,0.325,3.145,0.866,4.593,1.58
			c0.721,0.354,1.428,0.738,2.103,1.187c0.396,0.265,0.924,0.211,1.26-0.126l1.598-1.596c0.271-0.273,0.68-0.347,1.041-0.252
			c0.176,0.047,0.343,0.119,0.475,0.251l2.633,2.632c0.201,0.203,0.313,0.472,0.313,0.758c0,0.287-0.11,0.557-0.313,0.759
			l-1.597,1.597c-0.337,0.337-0.389,0.864-0.125,1.261c1.349,2.028,2.279,4.28,2.767,6.693c0.094,0.468,0.504,0.802,0.979,0.802
			h2.265c0.287,0,0.557,0.111,0.76,0.314c0.201,0.203,0.312,0.472,0.312,0.758v3.723c0,0.285-0.111,0.556-0.312,0.758
			c-0.202,0.201-0.473,0.313-0.76,0.313h-2.252c-0.478,0-0.888,0.336-0.98,0.804c-0.48,2.393-1.415,4.644-2.776,6.691
			c-0.264,0.396-0.212,0.924,0.125,1.262l1.597,1.598c0.203,0.201,0.314,0.472,0.314,0.758s-0.111,0.556-0.314,0.759l-2.631,2.631
			c-0.404,0.405-1.111,0.405-1.517,0l-1.599-1.598c-0.334-0.336-0.862-0.39-1.26-0.125c-2.049,1.36-4.3,2.296-6.693,2.776
			c-0.467,0.095-0.803,0.504-0.803,0.98v2.253c0,0.591-0.479,1.073-1.072,1.073h-3.721c-0.592,0-1.072-0.482-1.072-1.073v-2.264
			c0-0.476-0.336-0.886-0.803-0.979c-2.414-0.488-4.666-1.419-6.692-2.768c-0.169-0.111-0.361-0.167-0.553-0.167
			c-0.259,0-0.515,0.1-0.708,0.293l-1.597,1.597c-0.406,0.406-1.111,0.406-1.518,0l-2.631-2.631
			c-0.203-0.203-0.314-0.472-0.314-0.758c0-0.287,0.111-0.557,0.314-0.76l1.598-1.596c0.336-0.339,0.389-0.865,0.125-1.263
			c-0.945-1.42-1.673-2.957-2.199-4.578c-0.225-0.69-0.422-1.393-0.568-2.114c-0.094-0.468-0.504-0.803-0.979-0.803h-2.263
			C21.915,44.594,21.645,44.481,21.442,44.278z"/>
		<path d="M30.52,49.804c2.131,3.475,5.465,5.961,9.388,7.002c0.006,0.001,0.011,0.002,0.016,0.004h0.001
			c1.304,0.344,2.646,0.52,3.992,0.521c0.002,0,0.004,0.002,0.007,0.002c0.006,0,0.014,0,0.02,0s0.012,0,0.018,0
			c0.002,0,0.004-0.002,0.007-0.002c1.347-0.003,2.688-0.18,3.991-0.521h0.002c0.004-0.002,0.01-0.003,0.014-0.004
			c3.924-1.041,7.258-3.527,9.389-7.002c0.002-0.002,0.002-0.002,0.002-0.003c1.517-2.47,2.315-5.313,2.315-8.224
			c0-2.911-0.8-5.754-2.315-8.223c0-0.001,0-0.002,0-0.002c-2.131-3.475-5.465-5.962-9.391-7.003
			c-1.307-0.347-2.654-0.521-4.007-0.526c-0.003,0-0.005-0.002-0.007-0.002c-0.006,0-0.012,0.001-0.018,0.001
			s-0.014-0.001-0.02-0.001c-0.003,0-0.005,0.002-0.007,0.002c-1.354,0.004-2.7,0.18-4.009,0.526
			c-3.923,1.042-7.257,3.528-9.388,7.003c0,0-0.001,0.001-0.002,0.002c-1.514,2.469-2.314,5.313-2.314,8.223
			s0.801,5.754,2.314,8.224C30.519,49.802,30.52,49.802,30.52,49.804z M49.889,53.761c0.6-1.479,1.081-3.188,1.432-5.074
			c1.246,0.262,2.422,0.584,3.468,0.967C53.51,51.384,51.835,52.798,49.889,53.761z M55.876,47.935
			c-1.269-0.494-2.706-0.906-4.248-1.225c0.17-1.316,0.272-2.67,0.31-4.049h5.442C57.24,44.553,56.717,46.337,55.876,47.935z
			 M55.808,35.249c0.884,1.631,1.429,3.466,1.571,5.412h-5.439c-0.031-1.438-0.136-2.848-0.312-4.217
			C53.141,36.133,54.557,35.731,55.808,35.249z M54.688,33.536c-1.021,0.367-2.158,0.678-3.367,0.932
			c-0.334-1.799-0.787-3.438-1.348-4.867C51.833,30.538,53.441,31.889,54.688,33.536z M44.96,28.206
			c0.81,0.061,1.594,0.197,2.354,0.396c0.875,1.614,1.578,3.768,2.037,6.215c-1.416,0.205-2.885,0.328-4.393,0.365L44.96,28.206
			L44.96,28.206z M44.96,37.183c1.604-0.039,3.168-0.168,4.678-0.387c0.158,1.256,0.255,2.546,0.285,3.865H44.96V37.183z
			 M44.96,42.661h4.956c-0.034,1.261-0.126,2.494-0.278,3.697c-1.51-0.22-3.073-0.349-4.678-0.388V42.661z M44.96,47.972
			c1.507,0.039,2.978,0.161,4.394,0.366c-0.479,2.553-1.227,4.776-2.152,6.412c-0.728,0.182-1.473,0.308-2.24,0.366L44.96,47.972
			L44.96,47.972z M33.065,49.662c1.053-0.388,2.239-0.712,3.498-0.976c0.353,1.896,0.838,3.612,1.439,5.096
			C36.043,52.821,34.352,51.403,33.065,49.662z M42.96,55.12c-0.777-0.057-1.534-0.178-2.271-0.359
			c-0.93-1.636-1.68-3.865-2.158-6.423c1.428-0.207,2.908-0.329,4.429-0.366V55.12z M42.96,45.972
			c-1.615,0.037-3.192,0.167-4.714,0.387c-0.152-1.203-0.245-2.438-0.278-3.696h4.992V45.972z M40.574,28.591
			c0.771-0.199,1.566-0.331,2.386-0.389v6.98c-1.521-0.037-3.002-0.16-4.429-0.367C38.99,32.364,39.695,30.206,40.574,28.591z
			 M38.246,36.796c1.521,0.221,3.098,0.35,4.714,0.389v3.478h-4.999C37.99,39.343,38.087,38.053,38.246,36.796z M37.918,29.579
			c-0.564,1.435-1.02,3.082-1.355,4.889c-1.22-0.256-2.369-0.569-3.396-0.941C34.421,31.87,36.044,30.515,37.918,29.579z
			 M32.044,35.237c1.262,0.49,2.673,0.893,4.211,1.207c-0.177,1.371-0.279,2.781-0.311,4.217h-5.479
			C30.61,38.71,31.157,36.87,32.044,35.237z M35.947,42.661c0.035,1.378,0.139,2.73,0.308,4.048
			c-1.566,0.321-2.999,0.733-4.278,1.237c-0.845-1.601-1.37-3.39-1.511-5.285H35.947z"/>
	</g>
</g>
</svg>